SplineFontDB: 3.0
FontName: OpenBaybayin
FullName: OpenBaybayin
FamilyName: OpenBaybayin
Weight: Regular
Copyright: Copyright 2016 Fredrick Brennan <copypaste@kittens.ph>. Based on Noto Sans Tagalog, Copyright 2013 Google Inc. Some rights reserved. This font is licensed under the OFL SIL 1.1. See LICENSE file for more information.
Version: 1.0
ItalicAngle: 0
UnderlinePosition: -205
UnderlineWidth: 102
Ascent: 1638
Descent: 600
InvalidEm: 0
sfntRevision: 0x00010000
LayerCount: 2
Layer: 0 0 "Back" 1
Layer: 1 0 "Fore" 0
XUID: [1021 637 1800187173 1028]
StyleMap: 0x0000
FSType: 0
OS2Version: 4
OS2_WeightWidthSlopeOnly: 0
OS2_UseTypoMetrics: 0
CreationTime: 1357739617
ModificationTime: 1561632959
PfmFamily: 17
TTFWeight: 400
TTFWidth: 5
LineGap: 0
VLineGap: 0
Panose: 2 11 5 2 4 5 4 2 2 4
OS2TypoAscent: 2189
OS2TypoAOffset: 0
OS2TypoDescent: -600
OS2TypoDOffset: 0
OS2TypoLinegap: 0
OS2WinAscent: 2189
OS2WinAOffset: 0
OS2WinDescent: 600
OS2WinDOffset: 0
HheadAscent: 2189
HheadAOffset: 0
HheadDescent: -600
HheadDOffset: 0
OS2SubXSize: 1434
OS2SubYSize: 1331
OS2SubXOff: 0
OS2SubYOff: 287
OS2SupXSize: 1434
OS2SupYSize: 1331
OS2SupXOff: 0
OS2SupYOff: 977
OS2StrikeYSize: 102
OS2StrikeYPos: 512
OS2CapHeight: 1434
OS2XHeight: 1024
OS2Vendor: 'GOOG'
OS2CodePages: 00000001.00000000
OS2UnicodeRanges: 00000000.00000000.00100000.00000000
Lookup: 1 0 0 "Single Substitution lookup 2" { "Single Substitution lookup 2-1"  } ['hist' ('DFLT' <'dflt' > 'bugi' <'dflt' > 'hano' <'dflt' > 'latn' <'dflt' > 'tagl' <'dflt' > ) ]
Lookup: 1 0 0 "'ss03' Style Set 3 lookup 4" { "'ss03' Style Set 3 lookup 4-1"  } ['ss03' ('DFLT' <'dflt' > 'bugi' <'dflt' > 'hano' <'dflt' > 'tagl' <'dflt' > ) ]
Lookup: 1 0 0 "'ss02' Style Set 2 lookup 3" { "'ss02' Style Set 2 lookup 3-1"  } ['ss02' ('DFLT' <'dflt' > 'bugi' <'dflt' > 'hano' <'dflt' > 'tagl' <'dflt' > ) ]

StartChar: .notdef
Encoding: 25 -1 0
Width: 1229
VWidth: 2048
GlyphClass: 2
Flags: HMW
LayerCount: 2
Fore
SplineSet
193 1462 m 1
 1034 1462 l 1
 1034 0 l 1
 193 0 l 1
 193 1462 l 1
297 104 m 1
 930 104 l 1
 930 1358 l 1
 297 1358 l 1
 297 104 l 1
EndSplineSet
Validated: 1
EndChar

StartChar: _a
Encoding: 3 5888 4
Width: 2077
VWidth: 2048
GlyphClass: 2
Flags: HMW
LayerCount: 2
Fore
SplineSet
641 1061 m 1
 641 1032 l 2
 641 974.666666667 636.166666667 914.833333333 626.5 852.5 c 128
 616.833333333 790.166666667 606 729.166666667 594 669.5 c 128
 582 609.833333333 571.166666667 553.166666667 561.5 499.5 c 128
 551.833333333 445.833333333 547 399.333333333 547 360 c 0
 547 212.666666667 586 139 664 139 c 0
 696.666666667 139 730.333333333 148.833333333 765 168.5 c 128
 799.666666667 188.166666667 835.166666667 216.5 871.5 253.5 c 128
 907.833333333 290.5 949 341 995 405 c 128
 1041 469 1115 585.333333333 1217 754 c 2
 1311 909 l 2
 1403 1061.66666667 1481.16666667 1164.66666667 1545.5 1218 c 128
 1609.83333333 1271.33333333 1684.33333333 1298 1769 1298 c 0
 1840.33333333 1298 1901.33333333 1279.83333333 1952 1243.5 c 128
 2002.66666667 1207.16666667 2041.33333333 1156.66666667 2068 1092 c 1
 1939 1036 l 1
 1907 1118 1849 1159 1765 1159 c 0
 1717 1159 1673.16666667 1142.5 1633.5 1109.5 c 128
 1593.83333333 1076.5 1550.33333333 1021.33333333 1503 944 c 2
 1266 548 l 2
 1150.66666667 352 1044.5 211.666666667 947.5 127 c 128
 850.5 42.3333333333 751.666666667 0 651 0 c 0
 572.333333333 0 509 31.5 461 94.5 c 128
 413 157.5 389 240.666666667 389 344 c 0
 389 430 404 538.666666667 434 670 c 2
 455 768 l 1
 172 768 l 1
 172 907 l 1
 477 907 l 1
 482.333333333 947.666666667 485 999 485 1061 c 1
 172 1061 l 1
 172 1200 l 1
 471 1200 l 1
 453 1268.66666667 421.5 1323.5 376.5 1364.5 c 128
 331.5 1405.5 267.333333333 1436.66666667 184 1458 c 1
 217 1595 l 1
 312.333333333 1563 384.833333333 1530.33333333 434.5 1497 c 128
 484.166666667 1463.66666667 524.833333333 1423 556.5 1375 c 128
 588.166666667 1327 611.666666667 1268.66666667 627 1200 c 1
 928 1200 l 1
 928 1061 l 1
 641 1061 l 1
EndSplineSet
Validated: 1
EndChar

StartChar: _i
Encoding: 4 5889 5
Width: 2071
VWidth: 2048
GlyphClass: 2
Flags: HMW
AnchorPoint: "Anchor-0" 998 1382 basechar 0
LayerCount: 2
Fore
SplineSet
369 160 m 0
 247.666666667 160 148.666666667 184.333333333 72 233 c 1
 145 352 l 1
 199.666666667 316.666666667 274.333333333 299 369 299 c 0
 466.333333333 299 550.833333333 337.166666667 622.5 413.5 c 128
 694.166666667 489.833333333 747.333333333 599 782 741 c 1
 877 741 l 1
 904.333333333 623 945 529 999 459 c 1
 1030.33333333 481.666666667 1065.66666667 523.166666667 1105 583.5 c 128
 1144.33333333 643.833333333 1172.66666667 696.333333333 1190 741 c 1
 1284 741 l 1
 1308.66666667 603.666666667 1352.66666667 495.666666667 1416 417 c 128
 1479.33333333 338.333333333 1556.33333333 299 1647 299 c 0
 1683.66666667 299 1715.5 303 1742.5 311 c 128
 1769.5 319 1803.66666667 334.666666667 1845 358 c 1
 1911 236 l 1
 1851.66666667 204.666666667 1804.16666667 184.166666667 1768.5 174.5 c 128
 1732.83333333 164.833333333 1693 160 1649 160 c 0
 1556.33333333 160 1474.33333333 185.833333333 1403 237.5 c 128
 1331.66666667 289.166666667 1267.33333333 374 1210 492 c 1
 1127.33333333 382.666666667 1048.33333333 304.666666667 973 258 c 1
 911 330 863.666666667 400.333333333 831 469 c 1
 777 369.666666667 710 293.333333333 630 240 c 128
 550 186.666666667 463 160 369 160 c 0
580 870 m 0
 488 870 402.833333333 884.166666667 324.5 912.5 c 128
 246.166666667 940.833333333 160 989.666666667 66 1059 c 1
 143 1174 l 1
 228.333333333 1112.66666667 302.5 1070 365.5 1046 c 128
 428.5 1022 501.333333333 1010 584 1010 c 0
 710.666666667 1010 864 1040 1044 1100 c 0
 1220 1157.33333333 1367 1186 1485 1186 c 0
 1577 1186 1662.33333333 1171.83333333 1741 1143.5 c 128
 1819.66666667 1115.16666667 1907 1066.33333333 2003 997 c 1
 1917 887 l 1
 1831 950.333333333 1754 992.833333333 1686 1014.5 c 128
 1618 1036.16666667 1542 1047 1458 1047 c 0
 1383.33333333 1047 1288 1029 1172 993 c 0
 1003.33333333 940.333333333 879.166666667 906.666666667 799.5 892 c 128
 719.833333333 877.333333333 646.666666667 870 580 870 c 0
EndSplineSet
EndChar

StartChar: _u
Encoding: 5 5890 6
Width: 1096
VWidth: 2048
GlyphClass: 2
Flags: HMW
LayerCount: 2
Fore
SplineSet
221 1223 m 1
 279 1249.66666667 333.666666667 1268.83333333 385 1280.5 c 128
 436.333333333 1292.16666667 500.666666667 1298 578 1298 c 0
 698 1298 791.333333333 1271.66666667 858 1219 c 128
 924.666666667 1166.33333333 958 1093.66666667 958 1001 c 0
 958 873.666666667 898 783 778 729 c 1
 843.333333333 711 896.166666667 673.666666667 936.5 617 c 128
 976.833333333 560.333333333 997 493.333333333 997 416 c 0
 997 287.333333333 951.166666667 185.833333333 859.5 111.5 c 128
 767.833333333 37.1666666667 647.333333333 0 498 0 c 0
 424.666666667 0 356.833333333 5 294.5 15 c 128
 232.166666667 25 166.666666667 42.6666666667 98 68 c 1
 150 201 l 1
 189.333333333 183 241.333333333 168.166666667 306 156.5 c 128
 370.666666667 144.833333333 434 139 496 139 c 0
 566 139 626.833333333 151 678.5 175 c 128
 730.166666667 199 770.333333333 232.166666667 799 274.5 c 128
 827.666666667 316.833333333 842 363.333333333 842 414 c 0
 842 484.666666667 817.666666667 539.5 769 578.5 c 128
 720.333333333 617.5 646.333333333 637 547 637 c 2
 406 637 l 1
 406 776 l 1
 500 776 l 2
 590 776 662.666666667 796 718 836 c 128
 773.333333333 876 801 928.333333333 801 993 c 0
 801 1045.66666667 780.166666667 1086.5 738.5 1115.5 c 128
 696.833333333 1144.5 640.333333333 1159 569 1159 c 0
 521 1159 470.5 1153 417.5 1141 c 128
 364.5 1129 318.333333333 1113.33333333 279 1094 c 1
 221 1223 l 1
EndSplineSet
Validated: 1
EndChar

StartChar: _ka
Encoding: 6 5891 7
Width: 2015
VWidth: 2048
GlyphClass: 2
Flags: HMW
AnchorPoint: "Anchor-1" 1105 0 basechar 0
AnchorPoint: "Anchor-0" 1000 1420 basechar 0
LayerCount: 2
Fore
SplineSet
1522 510 m 0
 1592.66666667 510 1657.66666667 502.166666667 1717 486.5 c 128
 1776.33333333 470.833333333 1841 444.666666667 1911 408 c 1
 1847 283 l 1
 1781 317 1725.16666667 340.166666667 1679.5 352.5 c 128
 1633.83333333 364.833333333 1584 371 1530 371 c 0
 1496 371 1456 365.166666667 1410 353.5 c 128
 1364 341.833333333 1329 330.333333333 1305 319 c 2
 766 94 l 2
 684.666666667 60 602 43 518 43 c 0
 444.666666667 43 376.666666667 55.5 314 80.5 c 128
 251.333333333 105.5 181.333333333 151 104 217 c 1
 195 326 l 1
 247 276 298.5 239.5 349.5 216.5 c 128
 400.5 193.5 458 182 522 182 c 0
 587.333333333 182 650.333333333 195 711 221 c 2
 940 317 l 1
 940 895 l 1
 766 823 l 2
 684.666666667 789 602 772 518 772 c 0
 444.666666667 772 376.666666667 784.5 314 809.5 c 128
 251.333333333 834.5 181.333333333 880 104 946 c 1
 195 1055 l 1
 247 1005 298.5 968.5 349.5 945.5 c 128
 400.5 922.5 458 911 522 911 c 0
 587.333333333 911 650.333333333 924 711 950 c 2
 1249 1176 l 2
 1289.66666667 1193.33333333 1335.16666667 1208.16666667 1385.5 1220.5 c 128
 1435.83333333 1232.83333333 1481.33333333 1239 1522 1239 c 0
 1592.66666667 1239 1657.66666667 1231.16666667 1717 1215.5 c 128
 1776.33333333 1199.83333333 1841 1173.66666667 1911 1137 c 1
 1847 1012 l 1
 1781 1046 1725.16666667 1069.16666667 1679.5 1081.5 c 128
 1633.83333333 1093.83333333 1584 1100 1530 1100 c 0
 1467.33333333 1100 1392.33333333 1083 1305 1049 c 1
 1098 961 l 1
 1098 383 l 1
 1249 446 l 2
 1351.66666667 488.666666667 1442.66666667 510 1522 510 c 0
EndSplineSet
Validated: 1
EndChar

StartChar: _ga
Encoding: 7 5892 8
Width: 1714
VWidth: 2048
GlyphClass: 2
Flags: HMW
AnchorPoint: "Anchor-1" 1118 0 basechar 0
AnchorPoint: "Anchor-0" 820 1420 basechar 0
LayerCount: 2
Fore
SplineSet
221 1223 m 1
 279 1249.66666667 333.666666667 1268.83333333 385 1280.5 c 128
 436.333333333 1292.16666667 500.666666667 1298 578 1298 c 0
 722 1298 827 1260 893 1184 c 1
 955 1220.66666667 1023.33333333 1239 1098 1239 c 0
 1206.66666667 1239 1285.33333333 1198.16666667 1334 1116.5 c 128
 1382.66666667 1034.83333333 1407 902.333333333 1407 719 c 2
 1407 424 l 2
 1407 333.333333333 1414.5 270.833333333 1429.5 236.5 c 128
 1444.5 202.166666667 1469.66666667 177.333333333 1505 162 c 128
 1540.33333333 146.666666667 1592.33333333 139 1661 139 c 1
 1661 0 l 1
 1640 0 l 2
 1544 0 1467.66666667 14.3333333333 1411 43 c 128
 1354.33333333 71.6666666667 1313.16666667 114.333333333 1287.5 171 c 128
 1261.83333333 227.666666667 1249 312 1249 424 c 2
 1249 719 l 2
 1249 853.666666667 1236.33333333 950.833333333 1211 1010.5 c 128
 1185.66666667 1070.16666667 1141.66666667 1100 1079 1100 c 0
 1039.66666667 1100 997.333333333 1088.33333333 952 1065 c 1
 956 1043.66666667 958 1022.33333333 958 1001 c 0
 958 873.666666667 898 783 778 729 c 1
 843.333333333 711 896.166666667 673.666666667 936.5 617 c 128
 976.833333333 560.333333333 997 493.333333333 997 416 c 0
 997 287.333333333 951.166666667 185.833333333 859.5 111.5 c 128
 767.833333333 37.1666666667 647.333333333 0 498 0 c 0
 424.666666667 0 356.833333333 5 294.5 15 c 128
 232.166666667 25 166.666666667 42.6666666667 98 68 c 1
 150 201 l 1
 189.333333333 183 241.333333333 168.166666667 306 156.5 c 128
 370.666666667 144.833333333 434 139 496 139 c 0
 566 139 626.833333333 151 678.5 175 c 128
 730.166666667 199 770.333333333 232.166666667 799 274.5 c 128
 827.666666667 316.833333333 842 363.333333333 842 414 c 0
 842 484.666666667 817.666666667 539.5 769 578.5 c 128
 720.333333333 617.5 646.333333333 637 547 637 c 2
 406 637 l 1
 406 776 l 1
 500 776 l 2
 590 776 662.666666667 796 718 836 c 128
 773.333333333 876 801 928.333333333 801 993 c 0
 801 1045.66666667 780.166666667 1086.5 738.5 1115.5 c 128
 696.833333333 1144.5 640.333333333 1159 569 1159 c 0
 521 1159 470.5 1153 417.5 1141 c 128
 364.5 1129 318.333333333 1113.33333333 279 1094 c 1
 221 1223 l 1
EndSplineSet
Validated: 1
EndChar

StartChar: _nga
Encoding: 8 5893 9
Width: 2071
VWidth: 2048
GlyphClass: 2
Flags: HMW
AnchorPoint: "Anchor-1" 1157 0 basechar 0
AnchorPoint: "Anchor-0" 1000 1420 basechar 0
LayerCount: 2
Fore
SplineSet
1073 666 m 1
 1128.33333333 666 1174.66666667 674.5 1212 691.5 c 128
 1249.33333333 708.5 1290.33333333 738 1335 780 c 0
 1393 832 1443.83333333 868 1487.5 888 c 128
 1531.16666667 908 1579.33333333 918 1632 918 c 0
 1731.33333333 918 1810.83333333 886.833333333 1870.5 824.5 c 128
 1930.16666667 762.166666667 1960 680.666666667 1960 580 c 0
 1960 461.333333333 1921.5 360.666666667 1844.5 278 c 128
 1767.5 195.333333333 1661.33333333 141.666666667 1526 117 c 1
 1491 248 l 1
 1593 272 1672 312.833333333 1728 370.5 c 128
 1784 428.166666667 1812 498.666666667 1812 582 c 0
 1812 640 1795 687.166666667 1761 723.5 c 128
 1727 759.833333333 1684 778 1632 778 c 0
 1593.33333333 778 1559.83333333 770.5 1531.5 755.5 c 128
 1503.16666667 740.5 1471.33333333 714.666666667 1436 678 c 0
 1382.66666667 624.666666667 1326.83333333 586 1268.5 562 c 128
 1210.16666667 538 1145 526 1073 526 c 1
 1066.33333333 447.333333333 1045 377.833333333 1009 317.5 c 128
 973 257.166666667 926.333333333 211 869 179 c 128
 811.666666667 147 748.666666667 131 680 131 c 0
 618 131 558.333333333 138.333333333 501 153 c 0
 443.666666667 167 399 174 367 174 c 0
 339.666666667 174 319.833333333 165.833333333 307.5 149.5 c 128
 295.166666667 133.166666667 289 113.333333333 289 90 c 0
 289 61.3333333333 295 31.3333333333 307 0 c 1
 162 0 l 1
 148 35.3333333333 141 73.6666666667 141 115 c 0
 141 173 160.833333333 220.5 200.5 257.5 c 128
 240.166666667 294.5 293.333333333 313 360 313 c 0
 409.333333333 313 464 306 524 292 c 0
 583.333333333 277.333333333 632 270 670 270 c 0
 833.333333333 270 915 376.666666667 915 590 c 0
 915 694.666666667 897.333333333 773.666666667 862 827 c 128
 826.666666667 880.333333333 770 907 692 907 c 0
 630.666666667 907 570 891.666666667 510 861 c 0
 449.333333333 830.333333333 389.333333333 815 330 815 c 0
 259.333333333 815 204.333333333 833.833333333 165 871.5 c 128
 125.666666667 909.166666667 106 960.666666667 106 1026 c 0
 106 1074 121.5 1119 152.5 1161 c 128
 183.5 1203 242.666666667 1253.66666667 330 1313 c 1
 408 1196 l 1
 340.666666667 1152.66666667 298.166666667 1120.5 280.5 1099.5 c 128
 262.833333333 1078.5 254 1055.33333333 254 1030 c 0
 254 979.333333333 285.333333333 954 348 954 c 0
 374 954 413 967 465 993 c 0
 533.666666667 1029 605.333333333 1047 680 1047 c 0
 794 1047 885 1014.16666667 953 948.5 c 128
 1021 882.833333333 1061 788.666666667 1073 666 c 1
EndSplineSet
Validated: 1
EndChar

StartChar: _ta
Encoding: 9 5894 10
Width: 1997
VWidth: 2048
GlyphClass: 2
Flags: HMW
AnchorPoint: "Anchor-1" 1105 0 basechar 0
AnchorPoint: "Anchor-0" 1000 1420 basechar 0
LayerCount: 2
Fore
SplineSet
291 0 m 1
 315 205.333333333 383.333333333 404 496 596 c 1
 442 571.333333333 391.333333333 559 344 559 c 0
 281.333333333 559 231.5 576.833333333 194.5 612.5 c 128
 157.5 648.166666667 139 695.333333333 139 754 c 0
 139 816.666666667 161 872.666666667 205 922 c 1
 311 831 l 1
 289.666666667 805.666666667 279 782 279 760 c 0
 279 718.666666667 304 698 354 698 c 0
 450 698 586 778 762 938 c 0
 1019.33333333 1174 1296.33333333 1292 1593 1292 c 0
 1721 1292 1833.66666667 1269.66666667 1931 1225 c 1
 1872 1098 l 1
 1790 1134.66666667 1697 1153 1593 1153 c 0
 1469 1153 1341 1123.66666667 1209 1065 c 128
 1077 1006.33333333 958.333333333 925.666666667 853 823 c 128
 747.666666667 720.333333333 660.666666667 599.166666667 592 459.5 c 128
 523.333333333 319.833333333 477 166.666666667 453 0 c 1
 291 0 l 1
EndSplineSet
Validated: 1
EndChar

StartChar: _da
Encoding: 10 5895 11
Width: 2146
VWidth: 2048
GlyphClass: 2
Flags: HMW
AnchorPoint: "Anchor-1" 1131 0 basechar 0
AnchorPoint: "Anchor-0" 1080 1420 basechar 0
LayerCount: 2
Fore
SplineSet
596 303 m 4
 671.333333333 303 746.166666667 309.833333333 820.5 323.5 c 132
 894.833333333 337.166666667 981 359 1079 389 c 4
 1202.33333333 425 1293.83333333 448.333333333 1353.5 459 c 132
 1413.16666667 469.666666667 1470 475 1524 475 c 4
 1616 475 1702.33333333 460.5 1783 431.5 c 132
 1863.66666667 402.5 1950 354.333333333 2042 287 c 5
 1956 176 l 5
 1871.33333333 238.666666667 1795.83333333 281 1729.5 303 c 132
 1663.16666667 325 1585.66666667 336 1497 336 c 4
 1422.33333333 336 1328.66666667 318.666666667 1216 284 c 4
 1150.66666667 264 1073.16666667 242.333333333 983.5 219 c 132
 893.833333333 195.666666667 819.5 180.666666667 760.5 174 c 132
 701.5 167.333333333 646 164 594 164 c 4
 471.333333333 164 373.833333333 196.166666667 301.5 260.5 c 132
 229.166666667 324.833333333 193 409.333333333 193 514 c 4
 193 597.333333333 210.333333333 672.333333333 245 739 c 132
 279.666666667 805.666666667 322.333333333 862.333333333 373 909 c 5
 283 942.333333333 193.333333333 992.333333333 104 1059 c 5
 182 1174 l 5
 267.333333333 1112.66666667 341.5 1070 404.5 1046 c 132
 467.5 1022 540.333333333 1010 623 1010 c 4
 749.666666667 1010 903 1040 1083 1100 c 4
 1259 1157.33333333 1406 1186 1524 1186 c 4
 1616 1186 1702 1171.66666667 1782 1143 c 132
 1862 1114.33333333 1948.66666667 1065.66666667 2042 997 c 5
 1956 887 l 5
 1870 950.333333333 1793 992.833333333 1725 1014.5 c 132
 1657 1036.16666667 1581 1047 1497 1047 c 4
 1422.33333333 1047 1327 1029 1211 993 c 4
 1042.33333333 940.333333333 918.166666667 906.666666667 838.5 892 c 132
 758.833333333 877.333333333 685.333333333 870 618 870 c 4
 588.666666667 870 560 871.333333333 532 874 c 5
 479.333333333 836.666666667 435.833333333 787.833333333 401.5 727.5 c 132
 367.166666667 667.166666667 350 597.333333333 350 518 c 4
 350 452.666666667 370.5 400.5 411.5 361.5 c 132
 452.5 322.5 514 303 596 303 c 4
EndSplineSet
Validated: 1
EndChar

StartChar: _na
Encoding: 11 5896 12
Width: 1741
VWidth: 2048
GlyphClass: 2
Flags: HMW
AnchorPoint: "Anchor-1" 965 -98 basechar 0
AnchorPoint: "Anchor-0" 840 1420 basechar 0
LayerCount: 2
Fore
SplineSet
766 1147 m 1
 626 1115 514.833333333 1036.16666667 432.5 910.5 c 128
 350.166666667 784.833333333 309 631 309 449 c 0
 309 358.333333333 314.666666667 280.333333333 326 215 c 128
 337.333333333 149.666666667 355.666666667 78 381 0 c 1
 217 0 l 1
 173.666666667 120.666666667 152 269.333333333 152 446 c 0
 152 610.666666667 181.666666667 756.666666667 241 884 c 128
 300.333333333 1011.33333333 386.333333333 1112.16666667 499 1186.5 c 128
 611.666666667 1260.83333333 735.333333333 1298 870 1298 c 256
 1004.66666667 1298 1128.5 1261 1241.5 1187 c 128
 1354.5 1113 1441 1011.83333333 1501 883.5 c 128
 1561 755.166666667 1591 609.333333333 1591 446 c 0
 1591 273.333333333 1568.66666667 124.666666667 1524 0 c 1
 1360 0 l 1
 1385.33333333 78 1403.66666667 149.166666667 1415 213.5 c 128
 1426.33333333 277.833333333 1432 356.333333333 1432 449 c 0
 1432 574.333333333 1410 690.666666667 1366 798 c 128
 1322 905.333333333 1260.16666667 990.166666667 1180.5 1052.5 c 128
 1100.83333333 1114.83333333 1009 1149.66666667 905 1157 c 1
 905 1145 l 2
 905 1093.66666667 926.333333333 1049.66666667 969 1013 c 2
 1018 967 l 1
 1049.33333333 941.666666667 1065 913.666666667 1065 883 c 0
 1065 857 1053.66666667 832.333333333 1031 809 c 128
 1008.33333333 785.666666667 971.333333333 759.666666667 920 731 c 0
 899.333333333 720.333333333 889 713 889 709 c 0
 889 704.333333333 906.666666667 694.666666667 942 680 c 0
 989.333333333 661.333333333 1021.5 646.5 1038.5 635.5 c 128
 1055.5 624.5 1069 612.333333333 1079 599 c 128
 1089 585.666666667 1094 570.333333333 1094 553 c 0
 1094 532.333333333 1084.16666667 511.166666667 1064.5 489.5 c 128
 1044.83333333 467.833333333 1008 441.333333333 954 410 c 0
 938 399.333333333 923.166666667 390.333333333 909.5 383 c 128
 895.833333333 375.666666667 889 370.333333333 889 367 c 256
 889 363.666666667 895 360 907 356 c 0
 966.333333333 334 1012.33333333 312.166666667 1045 290.5 c 128
 1077.66666667 268.833333333 1094 243 1094 213 c 0
 1094 181.666666667 1082.83333333 153.666666667 1060.5 129 c 128
 1038.16666667 104.333333333 1010.33333333 80.3333333333 977 57 c 0
 906.333333333 8.33333333333 848.333333333 -55.6666666667 803 -135 c 1
 672 -66 l 1
 715.333333333 19.3333333333 782 92.6666666667 872 154 c 0
 894 168.666666667 905 181.666666667 905 193 c 0
 905 203 892.666666667 213 868 223 c 2
 815 244 l 2
 783.666666667 256 760.5 271.833333333 745.5 291.5 c 128
 730.5 311.166666667 723 335.666666667 723 365 c 0
 723 388.333333333 731.5 410.666666667 748.5 432 c 128
 765.5 453.333333333 786.166666667 470.833333333 810.5 484.5 c 128
 834.833333333 498.166666667 860 512 886 526 c 0
 898.666666667 531.333333333 905 536.333333333 905 541 c 0
 905 546.333333333 892.666666667 554.333333333 868 565 c 2
 815 587 l 2
 753.666666667 611 723 651 723 707 c 0
 723 723 726 737.333333333 732 750 c 128
 738 762.666666667 746.5 774.333333333 757.5 785 c 128
 768.5 795.666666667 781.666666667 806 797 816 c 128
 812.333333333 826 835 840 865 858 c 0
 891.666666667 872 905 881 905 885 c 0
 905 889.666666667 898.333333333 896.333333333 885 905 c 0
 805.666666667 959 766 1037.66666667 766 1141 c 2
 766 1147 l 1
EndSplineSet
EndChar

StartChar: _pa
Encoding: 12 5897 13
Width: 2107
VWidth: 2048
GlyphClass: 2
Flags: HMW
AnchorPoint: "Anchor-1" 1196 0 basechar 0
AnchorPoint: "Anchor-0" 1065 1420 basechar 0
LayerCount: 2
Fore
SplineSet
397 309 m 0
 397 381 413.333333333 490.333333333 446 637 c 0
 454.666666667 675 459 718 459 766 c 1
 119 766 l 1
 119 905 l 1
 408 905 l 2
 480.666666667 905 533.5 892.833333333 566.5 868.5 c 128
 599.5 844.166666667 616 803 616 745 c 0
 616 704.333333333 607.333333333 647 590 573 c 0
 574 501.666666667 564.166666667 447 560.5 409 c 128
 556.833333333 371 555 333 555 295 c 0
 555 191 598.666666667 139 686 139 c 0
 746 139 809.166666667 162.166666667 875.5 208.5 c 128
 941.833333333 254.833333333 1013 327.166666667 1089 425.5 c 128
 1165 523.833333333 1264 677.666666667 1386 887 c 0
 1423.33333333 949.666666667 1457.5 1006.5 1488.5 1057.5 c 128
 1519.5 1108.5 1552.16666667 1151.66666667 1586.5 1187 c 128
 1620.83333333 1222.33333333 1659.16666667 1249.66666667 1701.5 1269 c 128
 1743.83333333 1288.33333333 1795 1298 1855 1298 c 0
 1935.66666667 1298 2003 1272.83333333 2057 1222.5 c 128
 2111 1172.16666667 2138 1108.66666667 2138 1032 c 0
 2138 977.333333333 2125.33333333 927 2100 881 c 128
 2074.66666667 835 2039.16666667 799.166666667 1993.5 773.5 c 128
 1947.83333333 747.833333333 1894.33333333 735 1833 735 c 0
 1753 735 1682.66666667 749.333333333 1622 778 c 1
 1679 905 l 1
 1722.33333333 884.333333333 1771.66666667 874 1827 874 c 0
 1873.66666667 874 1912.66666667 889 1944 919 c 128
 1975.33333333 949 1991 986.666666667 1991 1032 c 0
 1991 1068.66666667 1977.66666667 1099 1951 1123 c 128
 1924.33333333 1147 1889.66666667 1159 1847 1159 c 0
 1810.33333333 1159 1776.83333333 1149.33333333 1746.5 1130 c 128
 1716.16666667 1110.66666667 1685.66666667 1081.5 1655 1042.5 c 128
 1624.33333333 1003.5 1578.66666667 929.666666667 1518 821 c 0
 1395.33333333 607 1288.33333333 443.166666667 1197 329.5 c 128
 1105.66666667 215.833333333 1017.33333333 132.5 932 79.5 c 128
 846.666666667 26.5 762 0 678 0 c 0
 586.666666667 0 517 26.3333333333 469 79 c 128
 421 131.666666667 397 208.333333333 397 309 c 0
EndSplineSet
Validated: 1
EndChar

StartChar: _ba
Encoding: 13 5898 14
Width: 1743
VWidth: 2048
GlyphClass: 2
Flags: HMW
AnchorPoint: "Anchor-1" 904 -22 basechar 0
AnchorPoint: "Anchor-0" 1000 1420 basechar 0
LayerCount: 2
Fore
SplineSet
893 352 m 1
 932.333333333 273.333333333 971.333333333 218.166666667 1010 186.5 c 128
 1048.66666667 154.833333333 1093 139 1143 139 c 0
 1204.33333333 139 1258.5 157.5 1305.5 194.5 c 128
 1352.5 231.5 1389 282 1415 346 c 128
 1441 410 1454 479.666666667 1454 555 c 0
 1454 659.666666667 1430.5 760.333333333 1383.5 857 c 128
 1336.5 953.666666667 1276.66666667 1028.16666667 1204 1080.5 c 128
 1131.33333333 1132.83333333 1053 1159 969 1159 c 0
 852.333333333 1159 742.5 1123.5 639.5 1052.5 c 128
 536.5 981.5 452.333333333 883 387 757 c 128
 321.666666667 631 289 500.333333333 289 365 c 0
 289 296.333333333 307.833333333 241.5 345.5 200.5 c 128
 383.166666667 159.5 434.666666667 139 500 139 c 0
 564 139 627.833333333 155.166666667 691.5 187.5 c 128
 755.166666667 219.833333333 822.333333333 274.666666667 893 352 c 1
864 141 m 1
 751.333333333 47 626.333333333 0 489 0 c 0
 378.333333333 0 291 34.1666666667 227 102.5 c 128
 163 170.833333333 131 265.666666667 131 387 c 0
 131 492.333333333 153.333333333 601 198 713 c 128
 242.666666667 825 304.333333333 926 383 1016 c 128
 461.666666667 1106 552.5 1175.5 655.5 1224.5 c 128
 758.5 1273.5 865.666666667 1298 977 1298 c 0
 1084.33333333 1298 1186.5 1264.66666667 1283.5 1198 c 128
 1380.5 1131.33333333 1459.5 1038.83333333 1520.5 920.5 c 128
 1581.5 802.166666667 1612 679.666666667 1612 553 c 0
 1612 445.666666667 1592.66666667 349.666666667 1554 265 c 128
 1515.33333333 180.333333333 1461.5 115 1392.5 69 c 128
 1323.5 23 1245 0 1157 0 c 0
 1096.33333333 0 1043.66666667 9.66666666667 999 29 c 128
 954.333333333 48.3333333333 909.333333333 85.6666666667 864 141 c 1
EndSplineSet
Validated: 1
EndChar

StartChar: _ma
Encoding: 14 5899 15
Width: 2109
VWidth: 2048
GlyphClass: 2
Flags: HMW
AnchorPoint: "Anchor-1" 1183 0 basechar 0
AnchorPoint: "Anchor-0" 1000 1420 basechar 0
LayerCount: 2
Fore
SplineSet
444 889 m 1
 119 889 l 1
 119 1028 l 1
 381 1028 l 2
 446.333333333 1028 493 1023.5 521 1014.5 c 128
 549 1005.5 569.5 990.333333333 582.5 969 c 128
 595.5 947.666666667 602 917.666666667 602 879 c 0
 602 849 599.333333333 821.666666667 594 797 c 1
 628.666666667 807.666666667 671.5 816.5 722.5 823.5 c 128
 773.5 830.5 820 834 862 834 c 0
 984 834 1102.33333333 807.333333333 1217 754 c 1
 1378 1008 l 2
 1444.66666667 1114.66666667 1507.33333333 1189.66666667 1566 1233 c 128
 1624.66666667 1276.33333333 1692.33333333 1298 1769 1298 c 0
 1840.33333333 1298 1901.33333333 1279.83333333 1952 1243.5 c 128
 2002.66666667 1207.16666667 2041.33333333 1156.66666667 2068 1092 c 1
 1939 1036 l 1
 1907 1118 1847.66666667 1159 1761 1159 c 0
 1714.33333333 1159 1671.66666667 1142.83333333 1633 1110.5 c 128
 1594.33333333 1078.16666667 1551 1022.66666667 1503 944 c 2
 1265 548 l 2
 1148.33333333 351.333333333 1042.66666667 210.833333333 948 126.5 c 128
 853.333333333 42.1666666667 758.666666667 0 664 0 c 0
 580 0 513.166666667 36.8333333333 463.5 110.5 c 128
 413.833333333 184.166666667 389 282.666666667 389 406 c 0
 389 510 399.666666667 616.333333333 421 725 c 0
 436.333333333 805.666666667 444 860.333333333 444 889 c 1
856 694 m 0
 760 694 663.666666667 677.666666667 567 645 c 1
 559 604.333333333 553.666666667 565.166666667 551 527.5 c 128
 548.333333333 489.833333333 547 447.666666667 547 401 c 0
 547 327.666666667 558.166666667 265.666666667 580.5 215 c 128
 602.833333333 164.333333333 630.666666667 139 664 139 c 0
 726 139 794.166666667 175.833333333 868.5 249.5 c 128
 942.833333333 323.166666667 1035 451.666666667 1145 635 c 1
 1055 674.333333333 958.666666667 694 856 694 c 0
EndSplineSet
EndChar

StartChar: _ya
Encoding: 15 5900 16
Width: 2107
VWidth: 2048
GlyphClass: 2
Flags: HMW
AnchorPoint: "Anchor-1" 1196 0 basechar 0
AnchorPoint: "Anchor-0" 1065 1420 basechar 0
LayerCount: 2
Fore
SplineSet
1951 1123 m 128
 1924.33333333 1147 1889.66666667 1159 1847 1159 c 0
 1810.33333333 1159 1776.83333333 1149.33333333 1746.5 1130 c 128
 1716.16666667 1110.66666667 1685.66666667 1081.5 1655 1042.5 c 128
 1624.33333333 1003.5 1578.66666667 929.666666667 1518 821 c 0
 1395.33333333 607 1288.33333333 443.166666667 1197 329.5 c 128
 1105.66666667 215.833333333 1017.33333333 132.5 932 79.5 c 128
 846.666666667 26.5 762 0 678 0 c 0
 586.666666667 0 517 26.3333333333 469 79 c 128
 421 131.666666667 397 208.333333333 397 309 c 0
 397 381 413.333333333 490.333333333 446 637 c 0
 454.666666667 675 459 718 459 766 c 1
 119 766 l 1
 119 905 l 1
 408 905 l 2
 480.666666667 905 533.5 892.833333333 566.5 868.5 c 128
 599.5 844.166666667 616 803 616 745 c 0
 616 704.333333333 607.333333333 647 590 573 c 0
 574 501.666666667 564.166666667 447 560.5 409 c 128
 556.833333333 371 555 333 555 295 c 0
 555 191 598.666666667 139 686 139 c 0
 746 139 809.166666667 162.166666667 875.5 208.5 c 128
 941.833333333 254.833333333 1013 327.166666667 1089 425.5 c 128
 1165 523.833333333 1264 677.666666667 1386 887 c 0
 1423.33333333 949.666666667 1457.5 1006.5 1488.5 1057.5 c 128
 1519.5 1108.5 1552.16666667 1151.66666667 1586.5 1187 c 128
 1620.83333333 1222.33333333 1659.16666667 1249.66666667 1701.5 1269 c 128
 1743.83333333 1288.33333333 1795 1298 1855 1298 c 0
 1935.66666667 1298 2003 1272.83333333 2057 1222.5 c 128
 1951 1123 l 128
EndSplineSet
Validated: 1
EndChar

StartChar: _la
Encoding: 16 5902 17
Width: 1870
VWidth: 2048
GlyphClass: 2
Flags: HMW
AnchorPoint: "Anchor-1" 1040 -100 basechar 0
AnchorPoint: "Anchor-0" 1000 1420 basechar 0
LayerCount: 2
Fore
SplineSet
805 801 m 0
 805 863 819.333333333 919 848 969 c 1
 764.666666667 930.333333333 693.333333333 903.5 634 888.5 c 128
 574.666666667 873.5 520.333333333 866 471 866 c 0
 397.666666667 866 329.666666667 878.5 267 903.5 c 128
 204.333333333 928.5 134.333333333 974 57 1040 c 1
 150 1151 l 1
 204 1099 257 1061.83333333 309 1039.5 c 128
 361 1017.16666667 416.333333333 1006 475 1006 c 0
 527 1006 591.833333333 1019.83333333 669.5 1047.5 c 128
 747.166666667 1075.16666667 823 1109 897 1149 c 0
 996.333333333 1201 1087.33333333 1239.66666667 1170 1265 c 128
 1252.66666667 1290.33333333 1331.66666667 1303 1407 1303 c 0
 1475 1303 1538 1295.66666667 1596 1281 c 128
 1654 1266.33333333 1720.66666667 1239.33333333 1796 1200 c 1
 1733 1075 l 1
 1671.66666667 1108.33333333 1617 1131.33333333 1569 1144 c 128
 1521 1156.66666667 1469.66666667 1163 1415 1163 c 0
 1326.33333333 1163 1247 1148.5 1177 1119.5 c 128
 1107 1090.5 1052.33333333 1050.33333333 1013 999 c 128
 973.666666667 947.666666667 954 891 954 829 c 0
 954 817.666666667 956 808 960 800 c 128
 964 792 969.833333333 784.833333333 977.5 778.5 c 128
 985.166666667 772.166666667 1007.33333333 761 1044 745 c 0
 1083.33333333 729.666666667 1113 713.166666667 1133 695.5 c 128
 1153 677.833333333 1163 655 1163 627 c 0
 1163 592.333333333 1132.66666667 557.666666667 1072 523 c 0
 1037.33333333 503.666666667 1013.83333333 489.333333333 1001.5 480 c 128
 989.166666667 470.666666667 983 463 983 457 c 0
 983 453 995.5 445.5 1020.5 434.5 c 128
 1045.5 423.5 1069.66666667 413.333333333 1093 404 c 0
 1153.66666667 379.333333333 1184 347 1184 307 c 0
 1184 275.666666667 1174 249.166666667 1154 227.5 c 128
 1134 205.833333333 1107 183.333333333 1073 160 c 0
 1003 116.666666667 943.666666667 56.6666666667 895 -20 c 1
 768 47 l 1
 824 146.333333333 894.333333333 221.333333333 979 272 c 0
 992.333333333 280.666666667 999 287.666666667 999 293 c 0
 999 299.666666667 987 307 963 315 c 2
 911 336 l 2
 848.333333333 358.666666667 817 397 817 451 c 0
 817 478.333333333 826.666666667 504.166666667 846 528.5 c 128
 865.333333333 552.833333333 902 577.333333333 956 602 c 0
 968.666666667 607.333333333 975 612 975 616 c 0
 975 620.666666667 972 624.333333333 966 627 c 128
 960 629.666666667 950.666666667 633.666666667 938 639 c 0
 849.333333333 673 805 727 805 801 c 0
EndSplineSet
Validated: 1
EndChar

StartChar: _wa
Encoding: 17 5903 18
Width: 1559
VWidth: 2048
GlyphClass: 2
Flags: HMW
AnchorPoint: "Anchor-1" 936 -60 basechar 0
AnchorPoint: "Anchor-0" 1100 1520 basechar 0
LayerCount: 2
Fore
SplineSet
397 311 m 0
 397 381.666666667 413.333333333 490.333333333 446 637 c 0
 454.666666667 675 459 718 459 766 c 1
 119 766 l 1
 119 905 l 1
 408 905 l 2
 480.666666667 905 533.5 892.833333333 566.5 868.5 c 128
 599.5 844.166666667 616 803 616 745 c 0
 616 704.333333333 607.333333333 647 590 573 c 0
 574 503 564.166666667 451.833333333 560.5 419.5 c 128
 556.833333333 387.166666667 555 356 555 326 c 0
 555 260 569.833333333 212.333333333 599.5 183 c 128
 629.166666667 153.666666667 673 139 731 139 c 0
 815.666666667 139 903.333333333 182.333333333 994 269 c 128
 1084.66666667 355.666666667 1158.83333333 464.833333333 1216.5 596.5 c 128
 1274.16666667 728.166666667 1303 851 1303 965 c 0
 1303 1055 1281.83333333 1123.5 1239.5 1170.5 c 128
 1197.16666667 1217.5 1135 1241 1053 1241 c 0
 996.333333333 1241 944.166666667 1228.66666667 896.5 1204 c 128
 848.833333333 1179.33333333 808 1145.33333333 774 1102 c 1
 670 1192 l 1
 767.333333333 1317.33333333 898.333333333 1380 1063 1380 c 0
 1189.66666667 1380 1287.5 1344 1356.5 1272 c 128
 1425.5 1200 1460 1096.33333333 1460 961 c 0
 1460 816.333333333 1422 666.833333333 1346 512.5 c 128
 1270 358.166666667 1174.66666667 234.166666667 1060 140.5 c 128
 945.333333333 46.8333333333 831.666666667 0 719 0 c 0
 617 0 537.833333333 27.3333333333 481.5 82 c 128
 425.166666667 136.666666667 397 213 397 311 c 0
EndSplineSet
Validated: 1
EndChar

StartChar: _sa
Encoding: 18 5904 19
Width: 1888
VWidth: 2048
GlyphClass: 2
Flags: HMW
AnchorPoint: "Anchor-1" 1248 -160 basechar 0
AnchorPoint: "Anchor-0" 1000 1420 basechar 0
LayerCount: 2
Fore
SplineSet
492 0 m 1
 354 0 l 1
 350 1159 l 1
 39 1159 l 1
 39 1298 l 1
 301 1298 l 2
 355.666666667 1298 397.666666667 1293.16666667 427 1283.5 c 128
 456.333333333 1273.83333333 477.166666667 1258.5 489.5 1237.5 c 128
 501.833333333 1216.5 508 1179.33333333 508 1126 c 2
 512 309 l 1
 516 309 l 1
 604.666666667 493 689.833333333 655.333333333 771.5 796 c 128
 853.166666667 936.666666667 923.833333333 1039.33333333 983.5 1104 c 128
 1043.16666667 1168.66666667 1107.16666667 1217.16666667 1175.5 1249.5 c 128
 1243.83333333 1281.83333333 1317.66666667 1298 1397 1298 c 0
 1505 1298 1591 1269.33333333 1655 1212 c 128
 1719 1154.66666667 1751 1079.66666667 1751 987 c 0
 1751 843 1691 744 1571 690 c 1
 1634.33333333 672.666666667 1686.66666667 636.5 1728 581.5 c 128
 1769.33333333 526.5 1790 463.666666667 1790 393 c 0
 1790 254.333333333 1735.33333333 150.833333333 1626 82.5 c 128
 1516.66666667 14.1666666667 1352.33333333 -20 1133 -20 c 2
 1049 -20 l 1
 1049 119 l 1
 1114 119 l 2
 1291.33333333 119 1422 141.666666667 1506 187 c 128
 1590 232.333333333 1632 301 1632 393 c 0
 1632 458.333333333 1607.16666667 508.833333333 1557.5 544.5 c 128
 1507.83333333 580.166666667 1438.66666667 598 1350 598 c 2
 1198 598 l 1
 1198 737 l 1
 1292 737 l 2
 1382.66666667 737 1455.5 757.666666667 1510.5 799 c 128
 1565.5 840.333333333 1593 896.333333333 1593 967 c 0
 1593 1028.33333333 1574.33333333 1075.66666667 1537 1109 c 128
 1499.66666667 1142.33333333 1447.33333333 1159 1380 1159 c 0
 1248.66666667 1159 1123.33333333 1069.66666667 1004 891 c 0
 946 805 865 668 761 480 c 0
 625.666666667 235.333333333 536 75.3333333333 492 0 c 1
EndSplineSet
Validated: 1
EndChar

StartChar: _ha
Encoding: 19 5905 20
Width: 2148
VWidth: 2048
GlyphClass: 2
Flags: HMW
AnchorPoint: "Anchor-1" 1040 0 basechar 0
AnchorPoint: "Anchor-0" 1091 1420 basechar 0
LayerCount: 2
Fore
SplineSet
621 483 m 0
 527.666666667 483 441 497.666666667 361 527 c 128
 281 556.333333333 196 604.666666667 106 672 c 1
 184 786 l 1
 266.666666667 726.666666667 340.166666667 684.666666667 404.5 660 c 128
 468.833333333 635.333333333 542.333333333 623 625 623 c 0
 751.666666667 623 905 653 1085 713 c 0
 1261 770.333333333 1408 799 1526 799 c 0
 1618 799 1704 784.666666667 1784 756 c 128
 1864 727.333333333 1950.66666667 678.666666667 2044 610 c 1
 1958 500 l 1
 1876 560.666666667 1801.5 602.333333333 1734.5 625 c 128
 1667.5 647.666666667 1589 659 1499 659 c 0
 1421.66666667 659 1326.33333333 641.333333333 1213 606 c 0
 1044.33333333 553.333333333 920.166666667 519.666666667 840.5 505 c 128
 760.833333333 490.333333333 687.666666667 483 621 483 c 0
EndSplineSet
Validated: 1
EndChar

StartChar: kudlit.i
Encoding: 20 5906 21
Width: 0
VWidth: 2048
GlyphClass: 4
Flags: HMW
AnchorPoint: "Anchor-2" 181 1679 basemark 0
AnchorPoint: "Anchor-2" -191 1679 mark 0
AnchorPoint: "Anchor-0" 6 1420 mark 0
LayerCount: 2
Fore
SplineSet
-214 1684 m 0
 -214 1764 -193.333007812 1822.33300781 -152 1859 c 128
 -110.666992188 1895.66699219 -60 1914 0 1914 c 0
 64 1914 114.666992188 1893.33300781 152 1852 c 128
 189.333007812 1810.66699219 208 1754.66699219 208 1684 c 256
 208 1613.33300781 188.333007812 1557.66699219 149 1517 c 128
 109.666992188 1476.33300781 60 1456 0 1456 c 256
 -60 1456 -110.666992188 1474.66699219 -152 1512 c 128
 -193.333007812 1549.33300781 -214 1606.66699219 -214 1684 c 0
EndSplineSet
Validated: 1
EndChar

StartChar: kudlit.u
Encoding: 21 5907 22
Width: 0
VWidth: 2048
GlyphClass: 4
Flags: HMW
AnchorPoint: "Anchor-2" 181 -290 basemark 0
AnchorPoint: "Anchor-2" -191 -290 mark 0
AnchorPoint: "Anchor-1" -4 0 mark 0
LayerCount: 2
Fore
SplineSet
-216 -290 m 4
 -216 -210 -195.666992188 -151.666992188 -155 -115 c 132
 -114.333007812 -78.3330078125 -64 -60 -4 -60 c 4
 52 -60 101 -78.3330078125 143 -115 c 132
 185 -151.666992188 206 -210 206 -290 c 4
 206 -368.666992188 185 -426.666992188 143 -464 c 132
 101 -501.333007812 52 -520 -4 -520 c 4
 -64 -520 -114.333007812 -501.333007812 -155 -464 c 132
 -195.666992188 -426.666992188 -216 -368.666992188 -216 -290 c 4
EndSplineSet
Validated: 1
EndChar

StartChar: virama
Encoding: 22 5908 23
Width: 0
VWidth: 2048
GlyphClass: 4
Flags: HMW
AnchorPoint: "Anchor-1" -540 0 mark 0
LayerCount: 2
Fore
SplineSet
-644 -682 m 5
 -644 -482 l 5
 -848 -482 l 5
 -848 -278 l 5
 -644 -278 l 5
 -644 -72 l 5
 -438 -72 l 5
 -438 -278 l 5
 -238 -278 l 5
 -238 -482 l 5
 -438 -482 l 5
 -438 -682 l 5
 -644 -682 l 5
EndSplineSet
Validated: 1
Substitution2: "Virama" virama.alt
EndChar

StartChar: danda
Encoding: 23 5941 24
Width: 774
VWidth: 2048
GlyphClass: 2
Flags: HMW
LayerCount: 2
Fore
SplineSet
63 -600 m 1
 577 1640 l 1
 720 1640 l 1
 204 -600 l 1
 63 -600 l 1
EndSplineSet
Validated: 1
EndChar

StartChar: kudlit.e
Encoding: 26 5909 26
Width: 0
VWidth: 2048
GlyphClass: 4
Flags: HMW
AnchorPoint: "Anchor-2" -191 1679 mark 0
AnchorPoint: "Anchor-2" 181 1679 basemark 0
AnchorPoint: "Anchor-0" 6 1420 mark 0
LayerCount: 2
Fore
SplineSet
-161.25 1684.25 m 0
 -161.25 1626.25 -145.75 1583.25 -114.75 1555.25 c 128
 -83.75 1527.25 -45.75 1513.25 -0.75 1513.25 c 256
 44.25 1513.25 81.5 1528.5 111 1559 c 128
 140.5 1589.5 155.25 1631.25 155.25 1684.25 c 256
 155.25 1737.25 141.25 1779.25 113.25 1810.25 c 128
 85.25 1841.25 47.25 1856.75 -0.75 1856.75 c 0
 -45.75 1856.75 -83.75 1843 -114.75 1815.5 c 128
 -145.75 1788 -161.25 1744.25 -161.25 1684.25 c 0
-214 1684 m 0
 -214 1764 -193.333007812 1822.33300781 -152 1859 c 128
 -110.666992188 1895.66699219 -60 1914 0 1914 c 0
 64 1914 114.666992188 1893.33300781 152 1852 c 128
 189.333007812 1810.66699219 208 1754.66699219 208 1684 c 256
 208 1613.33300781 188.333007812 1557.66699219 149 1517 c 128
 109.666992188 1476.33300781 60 1456 0 1456 c 256
 -60 1456 -110.666992188 1474.66699219 -152 1512 c 128
 -193.333007812 1549.33300781 -214 1606.66699219 -214 1684 c 0
EndSplineSet
Validated: 1
Ligature2: "vsliga subtable" kudlit.i uni2081
EndChar

StartChar: kudlit.o
Encoding: 27 5910 27
Width: 0
VWidth: 2048
GlyphClass: 4
Flags: HMW
AnchorPoint: "Anchor-2" -191 -290 mark 0
AnchorPoint: "Anchor-2" 181 -290 basemark 0
AnchorPoint: "Anchor-1" -4 6 mark 0
LayerCount: 2
Fore
SplineSet
-164.25 -290 m 0
 -164.25 -349 -149 -392.5 -118.5 -420.5 c 128
 -88 -448.5 -50.25 -462.5 -5.25 -462.5 c 0
 36.75 -462.5 73.5 -448.5 105 -420.5 c 128
 136.5 -392.5 152.25 -349 152.25 -290 c 0
 152.25 -230 136.5 -186.25 105 -158.75 c 128
 73.5 -131.25 36.75 -117.5 -5.25 -117.5 c 0
 -50.25 -117.5 -88 -131.25 -118.5 -158.75 c 128
 -149 -186.25 -164.25 -230 -164.25 -290 c 0
-217 -290 m 0
 -217 -210 -196.666992188 -151.666992188 -156 -115 c 128
 -115.333007812 -78.3330078125 -65 -60 -5 -60 c 0
 51 -60 100 -78.3330078125 142 -115 c 128
 184 -151.666992188 205 -210 205 -290 c 0
 205 -368.666992188 184 -426.666992188 142 -464 c 128
 100 -501.333007812 51 -520 -5 -520 c 0
 -65 -520 -115.333007812 -501.333007812 -156 -464 c 128
 -196.666992188 -426.666992188 -217 -368.666992188 -217 -290 c 0
EndSplineSet
Ligature2: "vsliga subtable" kudlit.u uni2081
EndChar

StartChar: _ra
Encoding: 28 5901 28
Width: 2146
VWidth: 2048
GlyphClass: 2
Flags: HMW
AnchorPoint: "Anchor-1" 1131 0 basechar 0
AnchorPoint: "Anchor-0" 1080 1420 basechar 0
LayerCount: 2
Fore
SplineSet
596 303 m 0
 671.333333333 303 746.166666667 309.833333333 820.5 323.5 c 0
 894.833333333 337.166666667 981 359 1079 389 c 0
 1202.33333333 425 1293.83333333 448.333333333 1353.5 459 c 0
 1413.16666667 469.666666667 1470 475 1524 475 c 0
 1616 475 1702.33333333 460.5 1783 431.5 c 0
 1863.66666667 402.5 1950 354.333333333 2042 287 c 1
 1956 176 l 1
 1871.33333333 238.666666667 1795.83333333 281 1729.5 303 c 0
 1663.16666667 325 1585.66666667 336 1497 336 c 0
 1482.66309088 336 1467.62567692 335.360942956 1451.88775813 334.082828868 c 1
 1472.00864555 305.013405231 1493.71281443 271.985795609 1517 235 c 0
 1562.33300781 163 1595.33300781 104.666992188 1616 60 c 1
 1487 -7 l 1
 1431.80038122 99.7192629651 1349.79819048 230.137398586 1295.50121884 306.387220196 c 1
 1270.14467248 299.968334794 1243.6442662 292.505928062 1216 284 c 0
 1150.66666667 264 1073.16666667 242.333333333 983.5 219 c 0
 893.833333333 195.666666667 819.5 180.666666667 760.5 174 c 0
 701.5 167.333333333 646 164 594 164 c 0
 471.333333333 164 373.833333333 196.166666667 301.5 260.5 c 0
 229.166666667 324.833333333 193 409.333333333 193 514 c 0
 193 597.333333333 210.333333333 672.333333333 245 739 c 0
 279.666666667 805.666666667 322.333333333 862.333333333 373 909 c 1
 283 942.333333333 193.333333333 992.333333333 104 1059 c 1
 182 1174 l 1
 267.333333333 1112.66666667 341.5 1070 404.5 1046 c 0
 467.5 1022 540.333333333 1010 623 1010 c 0
 749.666666667 1010 903 1040 1083 1100 c 0
 1259 1157.33333333 1406 1186 1524 1186 c 0
 1616 1186 1702 1171.66666667 1782 1143 c 0
 1862 1114.33333333 1948.66666667 1065.66666667 2042 997 c 1
 1956 887 l 1
 1870 950.333333333 1793 992.833333333 1725 1014.5 c 0
 1657 1036.16666667 1581 1047 1497 1047 c 0
 1422.33333333 1047 1327 1029 1211 993 c 0
 1042.33333333 940.333333333 918.166666667 906.666666667 838.5 892 c 0
 758.833333333 877.333333333 685.333333333 870 618 870 c 0
 588.666666667 870 560 871.333333333 532 874 c 1
 479.333333333 836.666666667 435.833333333 787.833333333 401.5 727.5 c 0
 367.166666667 667.166666667 350 597.333333333 350 518 c 0
 350 452.666666667 370.5 400.5 411.5 361.5 c 0
 452.5 322.5 514 303 596 303 c 0
EndSplineSet
Validated: 1
LCarets2: 1 0
Substitution2: "'ss03' Style Set 3 lookup 4-1" _ra.3
Substitution2: "'ss02' Style Set 2 lookup 3-1" _ra.2
Substitution2: "Single Substitution lookup 2-1" ra.alt
Ligature2: "vsliga subtable" _da uni2081
EndChar

StartChar: _e
Encoding: 29 5911 29
Width: 2071
VWidth: 2048
Flags: HMW
LayerCount: 2
Fore
SplineSet
369 741 m 0
 463 741 550 714.333007812 630 661 c 128
 710 607.666992188 777 531.333007812 831 432 c 1
 863.666992188 500.666992188 911 571 973 643 c 1
 1048.33300781 596.333007812 1127.33300781 518.333007812 1210 409 c 1
 1267.33300781 527 1331.66699219 611.833007812 1403 663.5 c 128
 1474.33300781 715.166992188 1556.33300781 741 1649 741 c 0
 1693 741 1732.83300781 736.166992188 1768.5 726.5 c 128
 1804.16699219 716.833007812 1851.66699219 696.333007812 1911 665 c 1
 1845 543 l 1
 1803.66699219 566.333007812 1769.5 582 1742.5 590 c 128
 1715.5 598 1683.66699219 602 1647 602 c 0
 1556.33300781 602 1479.33300781 562.666992188 1416 484 c 128
 1352.66699219 405.333007812 1308.66699219 297.333007812 1284 160 c 1
 1190 160 l 1
 1172.66699219 204.666992188 1144.33300781 257.166992188 1105 317.5 c 128
 1065.66699219 377.833007812 1030.33300781 419.333007812 999 442 c 1
 945 372 904.333007812 278 877 160 c 1
 782 160 l 1
 747.333007812 302 694.166992188 411.166992188 622.5 487.5 c 128
 550.833007812 563.833007812 466.333007812 602 369 602 c 0
 274.333007812 602 199.666992188 584.333007812 145 549 c 1
 72 668 l 1
 148.666992188 716.666992188 247.666992188 741 369 741 c 0
580 940 m 0
 488 940 402.833007812 954.166992188 324.5 982.5 c 128
 246.166992188 1010.83300781 160 1059.66699219 66 1129 c 1
 143 1244 l 1
 228.333007812 1182.66699219 302.5 1140 365.5 1116 c 128
 428.5 1092 501.333007812 1080 584 1080 c 0
 710.666992188 1080 864 1110 1044 1170 c 0
 1220 1227.33300781 1367 1256 1485 1256 c 0
 1577 1256 1662.33300781 1241.83300781 1741 1213.5 c 128
 1819.66699219 1185.16699219 1907 1136.33300781 2003 1067 c 1
 1917 957 l 1
 1831 1020.33300781 1754 1062.83300781 1686 1084.5 c 128
 1618 1106.16699219 1542 1117 1458 1117 c 0
 1383.33300781 1117 1288 1099 1172 1063 c 0
 1003.33300781 1010.33300781 879.166992188 976.666992188 799.5 962 c 128
 719.833007812 947.333007812 646.666992188 940 580 940 c 0
EndSplineSet
Validated: 1
LCarets2: 1 0
Ligature2: "vsliga subtable" _i uni2081
EndChar

StartChar: _o
Encoding: 30 5912 30
Width: 1096
VWidth: 2048
Flags: HMW
LayerCount: 2
Fore
SplineSet
618 789 m 5
 798 765 896.166666667 673.666666667 936.5 617 c 4
 976.833333333 560.333333333 997 493.333333333 997 416 c 4
 997 287.333333333 951.166666667 185.833333333 859.5 111.5 c 4
 767.833333333 37.1666666667 647.333333333 0 498 0 c 4
 424.666666667 0 356.833333333 5 294.5 15 c 4
 232.166666667 25 166.666666667 42.6666666667 98 68 c 5
 150 201 l 5
 189.333333333 183 241.333333333 168.166666667 306 156.5 c 4
 370.666666667 144.833333333 434 139 496 139 c 4
 566 139 626.833333333 151 678.5 175 c 4
 730.166666667 199 770.333333333 232.166666667 799 274.5 c 4
 827.666666667 316.833333333 842 363.333333333 842 414 c 4
 842 484.666666667 817.666666667 539.5 769 578.5 c 4
 720.333333333 617.5 646.333333333 637 547 637 c 6
 406 637 l 5
 406 640 l 5
 406 776 l 5
 731.895507812 1108.12207031 l 5
 374 1093 l 5
 238 1093 l 5
 238 1229 l 5
 1059 1265 l 5
 618 789 l 5
EndSplineSet
Validated: 1
Ligature2: "vsliga subtable" _u uni2081
EndChar

StartChar: _za
Encoding: 31 5913 31
Width: 1888
VWidth: 2048
GlyphClass: 2
Flags: HMW
AnchorPoint: "Anchor-1" 1248 -160 basechar 0
AnchorPoint: "Anchor-0" 1000 1420 basechar 0
LayerCount: 2
Fore
SplineSet
1843 1287 m 1
 1402 811 l 1
 1582 787 1680.16699219 695.666992188 1720.5 639 c 0
 1760.83300781 582.333007812 1781 515.333007812 1781 438 c 0
 1781 309.333007812 1735.16699219 207.833007812 1643.5 133.5 c 0
 1551.83300781 59.1669921875 1431.33300781 22 1282 22 c 0
 1208.66699219 22 1140.83300781 27 1078.5 37 c 0
 1016.16699219 47 950.666992188 64.6669921875 882 90 c 1
 934 223 l 1
 973.333007812 205 1025.33300781 190.166992188 1090 178.5 c 0
 1154.66699219 166.833007812 1218 161 1280 161 c 0
 1350 161 1410.83300781 173 1462.5 197 c 0
 1514.16699219 221 1554.33300781 254.166992188 1583 296.5 c 0
 1611.66699219 338.833007812 1626 385.333007812 1626 436 c 0
 1626 506.666992188 1601.66699219 561.5 1553 600.5 c 0
 1504.33300781 639.5 1430.33300781 659 1331 659 c 2
 1190 659 l 1
 1190 662 l 1
 1190 798 l 1
 1515.89550781 1130.12207031 l 1
 1515.89550781 1130.12207031 1227 1125 1161 1095 c 0
 1110.78934785 1072.1769763 1035 945 1004 891 c 0
 969.417016922 830.758674638 864.991654356 668.004616497 761 480 c 0
 625.666666667 235.333333333 536 75.3333333333 492 0 c 1
 354 0 l 1
 350 1159 l 1
 39 1159 l 1
 39 1298 l 1
 301 1298 l 2
 355.666666667 1298 397.666666667 1293.16666667 427 1283.5 c 128
 456.333333333 1273.83333333 477.166666667 1258.5 489.5 1237.5 c 128
 501.833333333 1216.5 508 1179.33333333 508 1126 c 2
 512 309 l 1
 516 309 l 1
 604.666666667 493 689.833333333 655.333333333 771.5 796 c 128
 853.166666667 936.666666667 923.833007812 1059.33300781 983.5 1124 c 128
 1043.16699219 1188.66699219 1102.86498177 1248.54821063 1175.5 1269.5 c 128
 1222.79710044 1283.14299081 1333.18924089 1285.71308675 1458.22617911 1285.71308675 c 0
 1533.81468348 1285.71308675 1614.75521395 1284.77383032 1690.34371833 1284.77383032 c 0
 1745.45749676 1284.77383032 1797.72598157 1285.27316651 1843 1287 c 1
EndSplineSet
Validated: 1
Ligature2: "vsliga subtable" _sa uni2081
EndChar

StartChar: _fa
Encoding: 32 5914 32
Width: 2191
VWidth: 2048
GlyphClass: 2
Flags: HMW
AnchorPoint: "Anchor-1" 1209 0 basechar 0
AnchorPoint: "Anchor-0" 1000 1420 basechar 0
LayerCount: 2
Fore
SplineSet
555 295 m 0
 555 245 566 206.5 588 179.5 c 128
 610 152.5 640.666666667 139 680 139 c 0
 766 139 854 180 944 262 c 128
 1034 344 1146.33333333 492 1281 706 c 2
 1473 1008 l 2
 1537 1112 1598.5 1186.33333333 1657.5 1231 c 128
 1716.5 1275.66666667 1785.33333333 1298 1864 1298 c 0
 1934.66666667 1298 1995.33333333 1279.83333333 2046 1243.5 c 128
 2096.66666667 1207.16666667 2135.66666667 1156.66666667 2163 1092 c 1
 2034 1036 l 1
 2002.66666667 1118 1943 1159 1855 1159 c 0
 1807 1159 1763.83333333 1142.66666667 1725.5 1110 c 128
 1687.16666667 1077.33333333 1644.33333333 1022 1597 944 c 2
 1528 827 l 5
 1561.33333333 785 1600.66666667 728 1646 656 c 132
 1691.33333333 584 1724.33333333 525.666666667 1745 481 c 5
 1616 414 l 5
 1556 530 1499.33333333 624 1446 696 c 5
 1346.66666667 536.666666667 1270.66666667 422.833333333 1218 354.5 c 128
 1165.33333333 286.166666667 1116.33333333 230.166666667 1071 186.5 c 128
 1025.66666667 142.833333333 980.333333333 107.166666667 935 79.5 c 128
 889.666666667 51.8333333333 845.5 31.6666666667 802.5 19 c 128
 759.5 6.33333333333 715.333333333 0 670 0 c 0
 582.666666667 0 515.333333333 26.6666666667 468 80 c 128
 420.666666667 133.333333333 397 209.666666667 397 309 c 0
 397 381 413.333333333 490.333333333 446 637 c 0
 454.666666667 675 459 718 459 766 c 1
 119 766 l 1
 119 905 l 1
 408 905 l 2
 480.666666667 905 533.5 892.833333333 566.5 868.5 c 128
 599.5 844.166666667 616 803 616 745 c 0
 616 704.333333333 607.333333333 647 590 573 c 0
 574 501.666666667 564.166666667 447 560.5 409 c 128
 556.833333333 371 555 333 555 295 c 0
EndSplineSet
Validated: 1
LCarets2: 1 0
Ligature2: "vsliga subtable" _pa uni2081
EndChar

StartChar: _va
Encoding: 33 5915 33
Width: 1743
VWidth: 2048
GlyphClass: 2
InSpiro: 1
Flags: HMW
AnchorPoint: "Anchor-1" 1066 -160 basechar 0
AnchorPoint: "Anchor-0" 1000 1420 basechar 0
LayerCount: 2
Back
SplineSet
269.782562256 694.548339844 m 0
 315.988124832 828.257165285 395.62659985 950.916275592 500.782562256 1045.54833984 c 0
 627.984817793 1160.02032739 801.232182221 1224.57751005 971.782562256 1210.54833984 c 0
 1077.79217808 1201.82817784 1181.20275418 1164.17152005 1268.31558199 1103.13517758 c 0
 1355.4284098 1042.0988351 1425.92659218 958.039689927 1472.78256226 862.548339844 c 0
 1543.31391997 718.807114109 1563.39330776 549.684413139 1523.78256226 394.548339844 c 0
 1509.14210411 337.208767983 1485.71412348 281.855246072 1452.18219431 233.092768263 c 0
 1418.65026514 184.330290453 1374.78071194 142.570945832 1323.78256226 112.548316956 c 0
 1245.07443603 66.2128150229 1151.64630698 49.8057132598 1060.32437262 51.3064390833 c 0
 969.002438253 52.8071649068 878.575039384 68.837274946 788.782562256 85.5483169556 c 0
 681.526970605 105.509373329 572.881079468 126.066676188 474.161802392 172.507068578 c 0
 424.802163854 195.727264774 378.458437609 226.136311167 340.305384762 265.122154577 c 0
 302.152331914 304.107997987 272.669999741 351.679602794 255.782562256 403.548339844 c 0
 225.175757973 497.555277523 237.491964578 601.106389405 269.782562256 694.548339844 c 0
  Spiro
    269.783 694.548 o
    500.783 1045.55 o
    971.783 1210.55 o
    1472.78 862.548 o
    1523.78 394.548 o
    1323.78 112.548 o
    788.783 85.5483 o
    255.783 403.548 o
    269.783 694.548 z
  EndSpiro
EndSplineSet
Fore
SplineSet
335.470970338 671.848493067 m 0
 306.343345552 587.559496659 297.692175794 499.31953297 321.86814861 425.064502984 c 0
 335.258627275 383.936462247 359.037573113 345.347414972 389.976968606 313.73268593 c 0
 421.067669779 281.963348565 460.313290187 255.828058228 503.746488045 235.39583049 c 0
 591.847263881 193.95068704 694.218779417 173.840688262 801.498681731 153.875107496 c 0
 890.940937844 137.229244199 977.519278288 122.17658843 1061.46633665 120.797056566 c 0
 1144.0773873 119.439479793 1224.47671486 134.735925568 1288.52397227 172.440568809 c 0
 1330.2602706 197.010742498 1366.8980039 231.729325824 1394.9155166 272.472682228 c 0
 1423.08637261 313.439032059 1443.53555147 361.190117743 1456.44294111 411.742101032 c 0
 1491.69296804 549.799355216 1473.84049371 702.620460538 1410.38908098 831.93292715 c 0
 1368.54146998 917.217360836 1305.43411549 992.265947522 1228.43479815 1046.21617302 c 0
 1151.43948971 1100.16358963 1059.52726579 1133.59588047 966.084860166 1141.28228617 c 0
 816.656465141 1153.57399955 661.202189208 1096.41432254 547.273357711 993.887368715 c 0
 451.325763729 907.542109057 377.934706817 794.72928949 335.470970338 671.848493067 c 0
  Spiro
    335.471 671.848 o
    313.64 586.992 o
    308.181 503.235 o
    321.868 425.065 o
    338.582 384.986 o
    361.57 347.472 o
    389.977 313.733 o
    423.603 283.872 o
    461.896 257.702 o
    503.746 235.396 o
    596.161 200.307 o
    696.305 174.651 o
    801.499 153.875 o
    889.907 138.222 o
    976.719 126.278 o
    1061.47 120.797 o
    1142.74 125.194 o
    1219.62 142.016 o
    1288.52 172.441 o
    1328.39 200.21 o
    1364.19 233.927 o
    1394.92 272.473 o
    1420.5 315.508 o
    1441.03 362.32 o
    1456.44 411.742 o
    1474.27 553.159 o
    1458.33 696.342 o
    1410.39 831.933 o
    1361.78 913.326 o
    1300.46 985.702 o
    1228.43 1046.22 o
    1147.05 1093.09 o
    1058.43 1125.23 o
    966.085 1141.28 o
    816.557 1131.35 o
    673.147 1080.33 o
    547.273 993.887 o
    459.235 899.429 o
    387.872 790.652 o
    0 0 z
  EndSpiro
204.094154174 717.24818662 m 0
 254.041542847 861.785041081 339.927435972 994.290442127 454.2917668 1097.20931097 c 0
 594.767446379 1223.62633224 785.807899301 1295.58102056 977.480264346 1279.81439351 c 0
 1096.05709036 1270.0604752 1210.96601864 1228.17945048 1308.19636583 1160.05418214 c 0
 1405.42270411 1091.93172268 1483.31171439 998.862019018 1535.17604353 893.163752538 c 0
 1612.78734624 734.99376768 1635.09364749 549.569471062 1591.1221834 377.354578656 c 0
 1574.74865674 313.227418223 1548.34187436 250.271460086 1509.44887202 193.712854297 c 0
 1470.40252638 136.931255081 1419.30115328 88.1311491664 1359.04115224 52.6560651026 c 0
 1265.6721572 -2.31029552262 1159.21522666 -19.8280532729 1059.18240859 -18.1841783996 c 0
 960.485598219 -16.562258616 866.209140924 0.445305693056 776.066442781 17.2215264155 c 0
 668.835161794 37.1780583948 553.914895055 58.1826653356 444.577116739 109.618306666 c 0
 389.291037522 135.626471319 335.84920544 170.309273769 290.633800918 216.511623223 c 0
 245.267090716 262.868581001 210.081372208 319.422743341 189.696975902 382.032176703 c 0
 152.659340152 495.791022076 168.640583605 614.65328215 204.094154174 717.24818662 c 0
  Spiro
    204.094 717.248 o
    265.672 856.99 o
    349.791 985.199 o
    454.292 1097.21 o
    609.604 1204.15 o
    788.054 1267.61 o
    977.48 1279.81 o
    1094.2 1259.6 o
    1205.7 1219.16 o
    1308.2 1160.05 o
    1398.65 1084.16 o
    1474.95 994.1 o
    1535.18 893.164 o
    1593.91 727.579 o
    1613.41 552.297 o
    1591.12 377.355 o
    1571.34 313.874 o
    1544.24 252.15 o
    1509.45 193.713 o
    1466.54 139.841 o
    1416.09 92.3312 o
    1359.04 52.6561 o
    1262.13 9.52732 o
    1160.53 -12.7767 o
    1059.18 -18.1842 o
    962.044 -12.0223 o
    867.505 0.961795 o
    776.066 17.2215 o
    666.875 38.5918 o
    555.173 67.2725 o
    444.577 109.618 o
    390.196 138.591 o
    338.305 174.083 o
    290.634 216.512 o
    248.87 266.062 o
    214.814 321.653 o
    189.697 382.032 o
    169.095 496.586 o
    176.393 610.133 o
    0 0 z
  EndSpiro
EndSplineSet
LCarets2: 1 0
Ligature2: "vsliga subtable" _ba uni2081
EndChar

StartChar: pamudpod
Encoding: 34 5940 34
Width: 185
VWidth: 0
GlyphClass: 2
Flags: HMW
LayerCount: 2
Fore
SplineSet
3.0048828125 897.174804688 m 5
 140.995117188 898.825195312 l 5
 141.058214537 893.54503923 148.908969483 652.168554845 148.908969483 454.548907082 c 0
 148.908969483 334.076818199 145.991380831 229.86615269 136.61328125 205.318359375 c 5
 127.284179688 149.576171875 105.311523438 -168.053710938 -73.7255859375 -287.411132812 c 4
 -183.511200382 -360.601744094 -361.003833694 -410.320688769 -535.758513279 -410.320688769 c 0
 -643.105084607 -410.320688769 -749.418550062 -391.560352066 -838.37109375 -347.956054688 c 5
 -777.62890625 -224.043945312 l 5
 -713.441257006 -255.508373444 -629.696923279 -269.001067079 -542.77783139 -269.001067079 c 0
 -393.755142031 -269.001067079 -235.400230245 -229.339205708 -150.274414062 -172.588867188 c 4
 -41.275390625 -99.9228515625 -12.74609375 189.333007812 4.841796875 248.041992188 c 5
 6.02122725629 271.7060895 6.45641420124 327.540627348 6.45641420124 397.060920991 c 0
 6.45641420124 592.845996168 3.0048828125 897.174804688 3.0048828125 897.174804688 c 5
EndSplineSet
Validated: 1
EndChar

StartChar: pallawa
Encoding: 35 6686 35
Width: 1164
VWidth: 2048
Flags: HMW
LayerCount: 2
Fore
SplineSet
684 203 m 0
 684 283 704.666992188 341.333007812 746 378 c 128
 787.333007812 414.666992188 838 433 898 433 c 0
 962 433 1012.66699219 412.333007812 1050 371 c 128
 1087.33300781 329.666992188 1106 273.666992188 1106 203 c 256
 1106 132.333007812 1086.33300781 76.6669921875 1047 36 c 128
 1007.66699219 -4.6669921875 958 -25 898 -25 c 256
 838 -25 787.333007812 -6.3330078125 746 31 c 128
 704.666992188 68.3330078125 684 125.666992188 684 203 c 0
370 791 m 0
 370 871 390.666992188 929.333007812 432 966 c 128
 473.333007812 1002.66699219 524 1021 584 1021 c 0
 648 1021 698.666992188 1000.33300781 736 959 c 128
 773.333007812 917.666992188 792 861.666992188 792 791 c 256
 792 720.333007812 772.333007812 664.666992188 733 624 c 128
 693.666992188 583.333007812 644 563 584 563 c 256
 524 563 473.333007812 581.666992188 432 619 c 128
 390.666992188 656.333007812 370 713.666992188 370 791 c 0
58 1379 m 0
 58 1459 78.6669921875 1517.33300781 120 1554 c 128
 161.333007812 1590.66699219 212 1609 272 1609 c 0
 336 1609 386.666992188 1588.33300781 424 1547 c 128
 461.333007812 1505.66699219 480 1449.66699219 480 1379 c 256
 480 1308.33300781 460.333007812 1252.66699219 421 1212 c 128
 381.666992188 1171.33300781 332 1151 272 1151 c 256
 212 1151 161.333007812 1169.66699219 120 1207 c 128
 78.6669921875 1244.33300781 58 1301.66699219 58 1379 c 0
EndSplineSet
Validated: 2049
EndChar

StartChar: virama.alt
Encoding: 36 -1 36
Width: 0
VWidth: 2048
GlyphClass: 4
Flags: HMW
AnchorPoint: "Anchor-1" -540 0 mark 0
LayerCount: 2
Fore
SplineSet
-398.3359375 -665.0859375 m 5
 -539.756835938 -523.6640625 l 5
 -684.006835938 -667.9140625 l 5
 -828.256835938 -523.6640625 l 5
 -684.006835938 -379.4140625 l 5
 -829.670898438 -233.75 l 5
 -684.006835938 -88.0869140625 l 5
 -538.342773438 -233.75 l 5
 -396.921875 -92.3291015625 l 5
 -252.671875 -236.579101562 l 5
 -394.09375 -378 l 5
 -252.671875 -519.421875 l 5
 -398.3359375 -665.0859375 l 5
EndSplineSet
Validated: 1
EndChar

StartChar: padalawa
Encoding: 37 57344 37
Width: 524
VWidth: 2048
Flags: HMW
LayerCount: 2
Fore
SplineSet
58 382 m 4
 58 462 78.6669921875 520.333007812 120 557 c 132
 161.333007812 593.666992188 212 612 272 612 c 4
 336 612 386.666992188 591.333007812 424 550 c 132
 461.333007812 508.666992188 480 452.666992188 480 382 c 260
 480 311.333007812 460.333007812 255.666992188 421 215 c 132
 381.666992188 174.333007812 332 154 272 154 c 260
 212 154 161.333007812 172.666992188 120 210 c 132
 78.6669921875 247.333007812 58 304.666992188 58 382 c 4
58 1023 m 4
 58 1103 78.6669921875 1161.33300781 120 1198 c 132
 161.333007812 1234.66699219 212 1253 272 1253 c 4
 336 1253 386.666992188 1232.33300781 424 1191 c 132
 461.333007812 1149.66699219 480 1093.66699219 480 1023 c 260
 480 952.333007812 460.333007812 896.666992188 421 856 c 132
 381.666992188 815.333007812 332 795 272 795 c 260
 212 795 161.333007812 813.666992188 120 851 c 132
 78.6669921875 888.333007812 58 945.666992188 58 1023 c 4
EndSplineSet
Validated: 1
EndChar

StartChar: padalawat_hati
Encoding: 38 57345 38
Width: 524
VWidth: 2048
Flags: HMW
LayerCount: 2
Fore
SplineSet
112.75 383 m 4
 112.75 324 128 280.5 158.5 252.5 c 132
 189 224.5 226.75 210.5 271.75 210.5 c 4
 313.75 210.5 350.5 224.5 382 252.5 c 132
 413.5 280.5 429.25 324 429.25 383 c 4
 429.25 443 413.5 486.75 382 514.25 c 132
 350.5 541.75 313.75 555.5 271.75 555.5 c 4
 226.75 555.5 189 541.75 158.5 514.25 c 132
 128 486.75 112.75 443 112.75 383 c 4
58 382 m 4
 58 462 78.6669921875 520.333007812 120 557 c 132
 161.333007812 593.666992188 212 612 272 612 c 4
 336 612 386.666992188 591.333007812 424 550 c 132
 461.333007812 508.666992188 480 452.666992188 480 382 c 260
 480 311.333007812 460.333007812 255.666992188 421 215 c 132
 381.666992188 174.333007812 332 154 272 154 c 260
 212 154 161.333007812 172.666992188 120 210 c 132
 78.6669921875 247.333007812 58 304.666992188 58 382 c 4
58 1023 m 4
 58 1103 78.6669921875 1161.33300781 120 1198 c 132
 161.333007812 1234.66699219 212 1253 272 1253 c 4
 336 1253 386.666992188 1232.33300781 424 1191 c 132
 461.333007812 1149.66699219 480 1093.66699219 480 1023 c 260
 480 952.333007812 460.333007812 896.666992188 421 856 c 132
 381.666992188 815.333007812 332 795 272 795 c 260
 212 795 161.333007812 813.666992188 120 851 c 132
 78.6669921875 888.333007812 58 945.666992188 58 1023 c 4
EndSplineSet
Validated: 2049
EndChar

StartChar: pahantig
Encoding: 39 57346 39
Width: 524
VWidth: 2048
Flags: HMW
LayerCount: 2
Fore
SplineSet
58 830 m 4
 58 910 78.6669921875 968.333007812 120 1005 c 132
 161.333007812 1041.66699219 212 1060 272 1060 c 4
 336 1060 386.666992188 1039.33300781 424 998 c 132
 461.333007812 956.666992188 480 900.666992188 480 830 c 260
 480 759.333007812 460.333007812 703.666992188 421 663 c 132
 381.666992188 622.333007812 332 602 272 602 c 260
 212 602 161.333007812 620.666992188 120 658 c 132
 78.6669921875 695.333007812 58 752.666992188 58 830 c 4
EndSplineSet
Validated: 1
EndChar

StartChar: uni2081
Encoding: 40 8321 40
Width: 2239
VWidth: 2048
GlyphClass: 1
Flags: HMW
LayerCount: 2
Fore
SplineSet
648.643554688 930.653320312 m 0
 655.166015625 930.653320312 665.3125 930.653320312 678.357421875 929.927734375 c 0
 732.712890625 929.203125 770.399414062 928.478515625 790.692382812 928.478515625 c 0
 810.985351562 928.478515625 847.947265625 929.203125 901.578125 929.927734375 c 0
 915.34765625 929.927734375 925.494140625 930.653320312 932.741210938 930.653320312 c 0
 933.466796875 918.33203125 934.19140625 904.5625 934.916015625 889.342773438 c 0
 936.365234375 874.123046875 937.814453125 854.5546875 940.713867188 829.9140625 c 2
 932.741210938 829.9140625 l 1
 924.76953125 861.078125 913.8984375 882.8203125 900.127929688 895.865234375 c 0
 885.633789062 908.185546875 865.340820312 914.708984375 838.525390625 914.708984375 c 2
 813.883789062 914.708984375 l 1
 813.883789062 648.728515625 l 2
 813.883789062 630.610351562 817.5078125 617.564453125 824.754882812 609.592773438 c 0
 832.002929688 601.620117188 845.047851562 597.272460938 863.891601562 595.822265625 c 2
 863.891601562 588.575195312 l 2
 848.671875 589.299804688 834.901367188 590.024414062 822.581054688 590.024414062 c 0
 810.260742188 590.024414062 798.6640625 590.749023438 788.518554688 590.749023438 c 0
 779.096679688 590.749023438 768.225585938 590.749023438 755.905273438 590.024414062 c 0
 743.583984375 590.024414062 729.814453125 589.299804688 715.319335938 588.575195312 c 2
 715.319335938 595.822265625 l 2
 734.162109375 597.272460938 747.208007812 602.344726562 755.1796875 610.317382812 c 0
 762.427734375 618.2890625 766.05078125 632.059570312 766.05078125 651.627929688 c 0
 766.05078125 652.352539062 766.05078125 654.526367188 766.05078125 657.42578125 c 0
 766.05078125 669.74609375 766.776367188 681.341796875 766.776367188 692.212890625 c 2
 766.776367188 913.983398438 l 1
 745.033203125 913.983398438 l 2
 716.768554688 913.983398438 695.750976562 908.185546875 682.706054688 896.58984375 c 0
 669.66015625 884.994140625 658.064453125 862.52734375 648.643554688 829.9140625 c 1
 641.395507812 829.9140625 l 2
 643.5703125 857.454101562 645.01953125 878.471679688 646.46875 892.241210938 c 0
 647.193359375 905.287109375 647.91796875 918.33203125 648.643554688 930.653320312 c 0
942.163085938 930.653320312 m 2
 963.905273438 929.927734375 979.849609375 929.203125 990.720703125 928.478515625 c 0
 1001.59179688 927.75390625 1010.2890625 927.75390625 1016.81152344 927.75390625 c 0
 1025.50878906 927.75390625 1035.65527344 927.75390625 1047.97558594 928.478515625 c 0
 1060.29589844 929.203125 1076.24023438 929.203125 1096.53320312 930.653320312 c 2
 1096.53320312 923.405273438 l 2
 1077.68945312 918.33203125 1065.36914062 913.983398438 1059.57128906 909.635742188 c 0
 1053.04882812 905.287109375 1050.14941406 900.938476562 1050.14941406 895.140625 c 0
 1050.14941406 890.791992188 1050.87402344 885.71875 1051.59863281 880.645507812 c 0
 1053.04882812 875.572265625 1054.49804688 869.774414062 1056.671875 863.9765625 c 2
 1141.46679688 647.279296875 l 1
 1226.26171875 856.729492188 l 2
 1229.88574219 865.42578125 1232.05957031 871.94921875 1233.50878906 877.022460938 c 0
 1234.95898438 882.094726562 1235.68359375 887.16796875 1235.68359375 890.791992188 c 0
 1235.68359375 897.314453125 1232.05957031 903.837890625 1225.53710938 908.91015625 c 0
 1219.01464844 913.983398438 1207.41796875 919.056640625 1192.19921875 923.405273438 c 2
 1192.19921875 930.653320312 l 2
 1207.41796875 929.927734375 1219.73925781 929.203125 1229.88574219 928.478515625 c 0
 1240.03125 927.75390625 1248.00390625 927.75390625 1255.25097656 927.75390625 c 0
 1262.49902344 927.75390625 1271.1953125 927.75390625 1280.6171875 928.478515625 c 0
 1290.76367188 929.203125 1303.08398438 929.203125 1317.57910156 930.653320312 c 2
 1317.57910156 923.405273438 l 2
 1289.31445312 919.056640625 1258.875 879.196289062 1226.26171875 803.098632812 c 2
 1222.63769531 794.401367188 l 1
 1131.3203125 584.2265625 l 1
 1119 584.2265625 l 1
 1014.63769531 842.234375 l 2
 1013.1875 845.858398438 1011.01367188 850.931640625 1008.83984375 857.454101562 c 0
 993.620117188 895.865234375 971.877929688 917.607421875 942.887695312 923.405273438 c 1
 942.887695312 930.653320312 l 1
 942.163085938 930.653320312 l 2
1559.64257812 921.956054688 m 1
 1559.64257812 907.4609375 1560.3671875 892.241210938 1561.09179688 877.022460938 c 0
 1561.81640625 861.802734375 1563.26660156 846.583007812 1564.71582031 832.087890625 c 2
 1558.19335938 832.087890625 l 1
 1545.87207031 861.078125 1529.92773438 882.8203125 1510.36035156 898.0390625 c 0
 1490.79199219 913.258789062 1468.32519531 921.231445312 1443.68359375 921.231445312 c 0
 1425.56542969 921.231445312 1411.0703125 916.158203125 1400.19921875 906.736328125 c 0
 1389.328125 897.314453125 1383.53027344 884.994140625 1383.53027344 869.774414062 c 0
 1383.53027344 845.133789062 1415.41894531 817.59375 1479.92089844 787.154296875 c 2
 1489.34277344 782.805664062 l 2
 1527.02929688 764.6875 1552.39550781 748.743164062 1564.71582031 732.798828125 c 0
 1577.03613281 717.579101562 1582.83398438 698.010742188 1582.83398438 674.819335938 c 0
 1582.83398438 646.5546875 1572.6875 623.362304688 1551.66992188 605.244140625 c 0
 1530.65332031 587.850585938 1503.11230469 578.428710938 1469.04980469 578.428710938 c 0
 1452.38085938 578.428710938 1432.8125 581.328125 1411.79492188 586.401367188 c 0
 1390.77832031 591.473632812 1377.73242188 594.373046875 1373.38378906 594.373046875 c 0
 1371.20996094 594.373046875 1369.03515625 594.373046875 1366.86132812 593.6484375 c 0
 1363.96289062 592.923828125 1360.33886719 592.19921875 1354.54101562 590.749023438 c 1
 1351.64160156 609.592773438 1348.01855469 629.16015625 1343.66992188 648.00390625 c 0
 1339.32128906 666.846679688 1334.97265625 686.415039062 1329.17480469 705.983398438 c 2
 1337.87207031 705.983398438 l 1
 1357.43945312 669.021484375 1378.45703125 640.756835938 1400.19921875 622.637695312 c 0
 1421.94140625 604.51953125 1445.85839844 595.09765625 1470.49902344 595.09765625 c 0
 1492.24121094 595.09765625 1509.63574219 600.895507812 1522.68066406 612.491210938 c 0
 1536.45117188 624.087890625 1542.97363281 639.306640625 1542.97363281 658.150390625 c 0
 1542.97363281 686.415039062 1513.25878906 714.6796875 1453.83007812 742.9453125 c 0
 1446.58300781 746.568359375 1441.50976562 748.743164062 1437.16113281 750.916992188 c 0
 1399.47460938 769.03515625 1374.83398438 785.705078125 1362.51269531 799.474609375 c 0
 1350.19238281 813.245117188 1344.39453125 829.9140625 1344.39453125 849.481445312 c 0
 1344.39453125 874.123046875 1353.81640625 895.140625 1372.65917969 911.084960938 c 0
 1391.50292969 927.75390625 1416.14355469 935.725585938 1445.13378906 935.725585938 c 0
 1461.078125 935.725585938 1480.64550781 932.827148438 1503.11230469 927.029296875 c 0
 1525.58007812 921.231445312 1540.07421875 918.33203125 1546.59667969 918.33203125 c 0
 1547.32226562 918.33203125 1549.49609375 918.33203125 1552.39550781 919.056640625 c 0
 1556.01855469 921.231445312 1558.19335938 921.956054688 1559.64257812 921.956054688 c 1
1135.66894531 491.459960938 m 2
 1145.09082031 491.459960938 l 2
 1144.36621094 479.864257812 1143.64160156 466.818359375 1142.91601562 453.048828125 c 0
 1142.19140625 439.278320312 1142.19140625 424.05859375 1142.19140625 405.940429688 c 2
 1142.19140625 205.912109375 l 2
 1142.19140625 187.79296875 1146.54003906 174.748046875 1154.51269531 166.776367188 c 0
 1162.484375 158.803710938 1176.97949219 153.73046875 1196.546875 153.005859375 c 2
 1196.546875 145.758789062 l 2
 1182.77734375 146.483398438 1169.00683594 147.208007812 1155.96191406 147.208007812 c 0
 1142.91601562 147.208007812 1130.59570312 147.932617188 1119 147.932617188 c 0
 1110.30273438 147.932617188 1100.15625 147.932617188 1087.8359375 147.208007812 c 0
 1076.24023438 147.208007812 1063.1953125 146.483398438 1048.70019531 145.758789062 c 2
 1048.70019531 153.005859375 l 2
 1069.71777344 154.455078125 1083.48730469 159.528320312 1091.45996094 167.500976562 c 0
 1099.43164062 175.47265625 1103.05566406 189.243164062 1103.05566406 208.0859375 c 2
 1103.05566406 249.396484375 l 1
 1103.05566406 397.96875 l 2
 1103.05566406 426.233398438 1100.15625 443.626953125 1094.35839844 450.149414062 c 0
 1088.56054688 456.671875 1076.24023438 459.571289062 1058.12207031 459.571289062 c 2
 1047.97558594 459.571289062 l 1
 1047.97558594 468.268554688 l 2
 1067.54296875 470.442382812 1084.21289062 473.341796875 1097.98242188 476.96484375 c 0
 1113.20214844 480.588867188 1125.52246094 485.662109375 1135.66894531 491.459960938 c 2
302.94140625 397.243164062 m 1
 302.94140625 484.212890625 l 1
 368.16796875 484.212890625 l 1
 368.16796875 397.243164062 l 1
 302.94140625 397.243164062 l 1
302.94140625 242.149414062 m 1
 302.94140625 329.118164062 l 1
 368.16796875 329.118164062 l 1
 368.16796875 242.149414062 l 1
 302.94140625 242.149414062 l 1
302.94140625 87.0546875 m 1
 302.94140625 174.0234375 l 1
 368.16796875 174.0234375 l 1
 368.16796875 87.0546875 l 1
 302.94140625 87.0546875 l 1
302.94140625 864.701171875 m 1
 302.94140625 951.669921875 l 1
 368.16796875 951.669921875 l 1
 368.16796875 864.701171875 l 1
 302.94140625 864.701171875 l 1
302.94140625 708.881835938 m 1
 302.94140625 795.850585938 l 1
 368.16796875 795.850585938 l 1
 368.16796875 708.881835938 l 1
 302.94140625 708.881835938 l 1
302.94140625 553.787109375 m 1
 302.94140625 640.756835938 l 1
 368.16796875 640.756835938 l 1
 368.16796875 553.787109375 l 1
 302.94140625 553.787109375 l 1
997.96875 1269.83203125 m 1
 997.96875 1335.05859375 l 1
 1084.9375 1335.05859375 l 1
 1084.9375 1269.83203125 l 1
 997.96875 1269.83203125 l 1
842.149414062 1269.83203125 m 1
 842.149414062 1335.05859375 l 1
 929.118164062 1335.05859375 l 1
 929.118164062 1269.83203125 l 1
 842.149414062 1269.83203125 l 1
687.779296875 1269.83203125 m 1
 687.779296875 1335.05859375 l 1
 774.748046875 1335.05859375 l 1
 774.748046875 1269.83203125 l 1
 687.779296875 1269.83203125 l 1
1464.70117188 1269.83203125 m 1
 1464.70117188 1335.05859375 l 1
 1551.66992188 1335.05859375 l 1
 1551.66992188 1269.83203125 l 1
 1464.70117188 1269.83203125 l 1
1308.88183594 1269.83203125 m 1
 1308.88183594 1335.05859375 l 1
 1395.85058594 1335.05859375 l 1
 1395.85058594 1269.83203125 l 1
 1308.88183594 1269.83203125 l 1
1154.51269531 1269.83203125 m 1
 1154.51269531 1335.05859375 l 1
 1241.48144531 1335.05859375 l 1
 1241.48144531 1269.83203125 l 1
 1154.51269531 1269.83203125 l 1
1869.83203125 553.0625 m 1
 1869.83203125 640.03125 l 1
 1935.05859375 640.03125 l 1
 1935.05859375 553.0625 l 1
 1869.83203125 553.0625 l 1
1869.83203125 708.881835938 m 1
 1869.83203125 795.850585938 l 1
 1935.05859375 795.850585938 l 1
 1935.05859375 708.881835938 l 1
 1869.83203125 708.881835938 l 1
1869.83203125 863.251953125 m 1
 1869.83203125 950.220703125 l 1
 1935.05859375 950.220703125 l 1
 1935.05859375 863.251953125 l 1
 1869.83203125 863.251953125 l 1
1869.83203125 86.330078125 m 1
 1869.83203125 173.298828125 l 1
 1935.05859375 173.298828125 l 1
 1935.05859375 86.330078125 l 1
 1869.83203125 86.330078125 l 1
1869.83203125 242.149414062 m 1
 1869.83203125 329.118164062 l 1
 1935.05859375 329.118164062 l 1
 1935.05859375 242.149414062 l 1
 1869.83203125 242.149414062 l 1
1869.83203125 396.518554688 m 1
 1869.83203125 483.487304688 l 1
 1935.05859375 483.487304688 l 1
 1935.05859375 396.518554688 l 1
 1869.83203125 396.518554688 l 1
1153.78710938 -297.05859375 m 1
 1153.78710938 -231.83203125 l 1
 1240.75683594 -231.83203125 l 1
 1240.75683594 -297.05859375 l 1
 1153.78710938 -297.05859375 l 1
1308.88183594 -297.05859375 m 1
 1308.88183594 -231.83203125 l 1
 1395.85058594 -231.83203125 l 1
 1395.85058594 -297.05859375 l 1
 1308.88183594 -297.05859375 l 1
1463.9765625 -297.05859375 m 1
 1463.9765625 -231.83203125 l 1
 1550.9453125 -231.83203125 l 1
 1550.9453125 -297.05859375 l 1
 1463.9765625 -297.05859375 l 1
686.330078125 -297.05859375 m 1
 686.330078125 -231.83203125 l 1
 773.298828125 -231.83203125 l 1
 773.298828125 -297.05859375 l 1
 686.330078125 -297.05859375 l 1
842.149414062 -297.05859375 m 1
 842.149414062 -231.83203125 l 1
 929.118164062 -231.83203125 l 1
 929.118164062 -297.05859375 l 1
 842.149414062 -297.05859375 l 1
997.243164062 -297.05859375 m 1
 997.243164062 -231.83203125 l 1
 1084.21289062 -231.83203125 l 1
 1084.21289062 -297.05859375 l 1
 997.243164062 -297.05859375 l 1
298.59375 1030.66699219 m 1
 298.59375 1139.37792969 l 1
 363.8203125 1139.37792969 l 1
 363.8203125 1030.66699219 l 1
 298.59375 1030.66699219 l 1
298.59375 1335.05859375 m 1
 407.3046875 1335.05859375 l 1
 407.3046875 1269.83203125 l 1
 363.8203125 1269.83203125 l 1
 363.8203125 1226.34667969 l 1
 298.59375 1226.34667969 l 1
 298.59375 1335.05859375 l 1
494.2734375 1269.83203125 m 1
 494.2734375 1335.05859375 l 1
 602.984375 1335.05859375 l 1
 602.984375 1269.83203125 l 1
 494.2734375 1269.83203125 l 1
1630.66699219 1274.1796875 m 1
 1630.66699219 1339.40625 l 1
 1739.37792969 1339.40625 l 1
 1739.37792969 1274.1796875 l 1
 1630.66699219 1274.1796875 l 1
1935.05859375 1339.40625 m 1
 1935.05859375 1230.6953125 l 1
 1869.83203125 1230.6953125 l 1
 1869.83203125 1274.1796875 l 1
 1826.34667969 1274.1796875 l 1
 1826.34667969 1339.40625 l 1
 1935.05859375 1339.40625 l 1
1869.83203125 1035.015625 m 1
 1869.83203125 1143.7265625 l 1
 1935.05859375 1143.7265625 l 1
 1935.05859375 1035.015625 l 1
 1869.83203125 1035.015625 l 1
1874.1796875 -101.377929688 m 1
 1874.1796875 7.3330078125 l 1
 1939.40625 7.3330078125 l 1
 1939.40625 -101.377929688 l 1
 1874.1796875 -101.377929688 l 1
1939.40625 -297.05859375 m 1
 1830.6953125 -297.05859375 l 1
 1830.6953125 -231.83203125 l 1
 1874.1796875 -231.83203125 l 1
 1874.1796875 -188.346679688 l 1
 1939.40625 -188.346679688 l 1
 1939.40625 -297.05859375 l 1
1635.015625 -297.05859375 m 1
 1635.015625 -231.83203125 l 1
 1743.7265625 -231.83203125 l 1
 1743.7265625 -297.05859375 l 1
 1635.015625 -297.05859375 l 1
498.622070312 -301.40625 m 1
 498.622070312 -236.1796875 l 1
 607.333007812 -236.1796875 l 1
 607.333007812 -301.40625 l 1
 498.622070312 -301.40625 l 1
302.94140625 -301.40625 m 1
 302.94140625 -192.6953125 l 1
 368.16796875 -192.6953125 l 1
 368.16796875 -236.1796875 l 1
 411.653320312 -236.1796875 l 1
 411.653320312 -301.40625 l 1
 302.94140625 -301.40625 l 1
302.94140625 -105.7265625 m 1
 302.94140625 2.984375 l 1
 368.16796875 2.984375 l 1
 368.16796875 -105.7265625 l 1
 302.94140625 -105.7265625 l 1
529.060546875 634.958984375 m 1
 529.060546875 724.1015625 l 1
 594.287109375 724.1015625 l 1
 594.287109375 634.958984375 l 1
 529.060546875 634.958984375 l 1
529.060546875 474.791015625 m 1
 529.060546875 563.93359375 l 1
 594.287109375 563.93359375 l 1
 594.287109375 474.791015625 l 1
 529.060546875 474.791015625 l 1
529.060546875 314.623046875 m 1
 529.060546875 403.766601562 l 1
 594.287109375 403.766601562 l 5
 594.287109375 314.623046875 l 5
 529.060546875 314.623046875 l 1
1234.95898438 1043.71289062 m 1
 1234.95898438 1108.93945312 l 1
 1324.1015625 1108.93945312 l 1
 1324.1015625 1043.71289062 l 1
 1234.95898438 1043.71289062 l 1
1074.79101562 1043.71289062 m 1
 1074.79101562 1108.93945312 l 1
 1163.93359375 1108.93945312 l 1
 1163.93359375 1043.71289062 l 1
 1074.79101562 1043.71289062 l 1
914.623046875 1043.71289062 m 1
 914.623046875 1108.93945312 l 1
 1003.76660156 1108.93945312 l 1
 1003.76660156 1043.71289062 l 1
 914.623046875 1043.71289062 l 1
1643.71289062 313.8984375 m 1
 1643.71289062 403.041015625 l 1
 1708.93945312 403.041015625 l 1
 1708.93945312 313.8984375 l 1
 1643.71289062 313.8984375 l 1
1643.71289062 474.06640625 m 1
 1643.71289062 563.208984375 l 1
 1708.93945312 563.208984375 l 1
 1708.93945312 474.06640625 l 1
 1643.71289062 474.06640625 l 1
1643.71289062 634.233398438 m 1
 1643.71289062 723.376953125 l 1
 1708.93945312 723.376953125 l 1
 1708.93945312 634.233398438 l 1
 1643.71289062 634.233398438 l 1
913.8984375 -70.939453125 m 1
 913.8984375 -5.712890625 l 1
 1003.04101562 -5.712890625 l 1
 1003.04101562 -70.939453125 l 1
 913.8984375 -70.939453125 l 1
1074.06640625 -70.939453125 m 1
 1074.06640625 -5.712890625 l 1
 1163.20898438 -5.712890625 l 1
 1163.20898438 -70.939453125 l 1
 1074.06640625 -70.939453125 l 1
1234.23339844 -70.939453125 m 1
 1234.23339844 -5.712890625 l 1
 1323.37695312 -5.712890625 l 1
 1323.37695312 -70.939453125 l 1
 1234.23339844 -70.939453125 l 1
523.987304688 804.547851562 m 1
 523.987304688 913.258789062 l 1
 589.21484375 913.258789062 l 1
 589.21484375 804.547851562 l 1
 523.987304688 804.547851562 l 1
523.987304688 1108.93945312 m 1
 632.69921875 1108.93945312 l 1
 632.69921875 1043.71289062 l 1
 589.939453125 1043.71289062 l 1
 589.939453125 1000.22753906 l 1
 523.987304688 1000.22753906 l 1
 523.987304688 1108.93945312 l 1
719.66796875 1043.71289062 m 1
 719.66796875 1108.93945312 l 1
 828.37890625 1108.93945312 l 1
 828.37890625 1043.71289062 l 1
 719.66796875 1043.71289062 l 1
1404.54785156 1048.78515625 m 1
 1404.54785156 1114.01269531 l 1
 1513.25878906 1114.01269531 l 1
 1513.25878906 1048.78515625 l 1
 1404.54785156 1048.78515625 l 1
1708.93945312 1114.01269531 m 1
 1708.93945312 1005.30078125 l 1
 1643.71289062 1005.30078125 l 1
 1643.71289062 1048.06054688 l 1
 1600.22753906 1048.06054688 l 1
 1600.22753906 1114.01269531 l 1
 1708.93945312 1114.01269531 l 1
1643.71289062 809.62109375 m 1
 1643.71289062 918.33203125 l 1
 1708.93945312 918.33203125 l 1
 1708.93945312 809.62109375 l 1
 1643.71289062 809.62109375 l 1
1648.06054688 124.741210938 m 1
 1648.06054688 233.452148438 l 1
 1713.28710938 233.452148438 l 1
 1713.28710938 124.741210938 l 1
 1648.06054688 124.741210938 l 1
1714.01269531 -70.939453125 m 1
 1605.30078125 -70.939453125 l 1
 1605.30078125 -5.712890625 l 1
 1648.06054688 -5.712890625 l 1
 1648.06054688 37.7724609375 l 1
 1714.01269531 37.7724609375 l 1
 1714.01269531 -70.939453125 l 1
1409.62109375 -70.939453125 m 1
 1409.62109375 -5.712890625 l 1
 1518.33203125 -5.712890625 l 1
 1518.33203125 -70.939453125 l 1
 1409.62109375 -70.939453125 l 1
724.741210938 -75.287109375 m 1
 724.741210938 -10.060546875 l 1
 833.452148438 -10.060546875 l 1
 833.452148438 -75.287109375 l 1
 724.741210938 -75.287109375 l 1
529.060546875 -76.0126953125 m 1
 529.060546875 32.69921875 l 1
 594.287109375 32.69921875 l 1
 594.287109375 -10.060546875 l 1
 637.772460938 -10.060546875 l 1
 637.772460938 -76.0126953125 l 1
 529.060546875 -76.0126953125 l 1
529.060546875 119.66796875 m 1
 529.060546875 228.37890625 l 1
 594.287109375 228.37890625 l 1
 594.287109375 119.66796875 l 1
 529.060546875 119.66796875 l 1
EndSplineSet
Comment: "TAGALOG VARIANT SELCTOR 1"
EndChar

StartChar: ra.alt
Encoding: 42 57347 42
Width: 1619
VWidth: 0
InSpiro: 1
Flags: W
HStem: 336.146 137.166<954.805 1134.89> 851.317 138.359<1103.26 1243.09> 1436.7 138.997<1044.16 1322.08>
VStem: 37.08 137.84<142.297 214.277> 1396.95 139<1086.96 1360.83>
LayerCount: 2
Back
SplineSet
106 221.2 m 4
 111.989594883 175.128176117 133.826474405 131.248500289 167.039011639 98.7613401602 c 4
 200.251548873 66.2741800311 244.724732717 45.3337441424 291 41.2 c 4
 345.251875606 36.3537098289 401.16200708 55.8993465919 440.570580452 93.498773183 c 4
 460.274867138 112.298486478 475.912019131 135.119385245 487.848700869 159.598024155 c 4
 499.785382607 184.076663065 508.017595117 210.162155502 516 236.2 c 6
 726 921.2 l 6
 765.084715871 1048.69062082 800.032578734 1179.45012453 868.010667234 1294.16914167 c 4
 901.999711484 1351.52865025 945.314185372 1404.15910187 999.568356783 1442.91285313 c 4
 1053.82252819 1481.6666044 1119.32804154 1505.73276637 1186 1506.2 c 4
 1234.94659878 1506.54301523 1284.01608024 1494.17315253 1326.588714 1470.0182763 c 4
 1369.16134777 1445.86340007 1405.01611163 1410.04465584 1429.32878685 1367.56194153 c 4
 1453.64146207 1325.07922722 1466.37961432 1276.13135434 1466.45150264 1227.18360645 c 4
 1466.52339097 1178.23585856 1454.02205286 1129.3957437 1431 1086.2 c 4
 1400.1658567 1028.34661223 1350.44364895 980.868918133 1291.52644855 952.119616123 c 4
 1232.60924814 923.370314112 1164.69965889 913.430562524 1100 924 c 5
 1135.08023309 921.630418278 1169.83192247 914.25139895 1202.78857422 902 c 4
 1258.78375343 881.184193681 1310.12680735 845.784498973 1345.10775 797.358353767 c 4
 1380.08869264 748.932208561 1396.92089315 687.069243714 1388 628 c 4
 1381.89834166 587.598177265 1364.28135206 549.222842954 1338.91855858 517.18745281 c 4
 1313.5557651 485.152062666 1280.78533563 459.333149837 1244.78857422 440 c 4
 1156.35977013 392.50663526 1049.99824677 382.283261838 952 404 c 5
 973.710261048 402.400957758 995.342452336 399.735803401 1016.78857422 396 c 4
 1113.362351 379.177348067 1209.1954749 340.76617669 1277.47333044 270.426782155 c 4
 1311.6122582 235.257084887 1337.95533687 192.070915763 1350.72299914 144.749030815 c 4
 1363.49066142 97.4271458664 1362.22424759 46.2509219905 1346 0 c 4
 1332.2092145 -39.3137826931 1307.85748487 -74.7408297995 1276.69720355 -102.395777681 c 4
 1245.53692223 -130.050725562 1207.82430068 -149.945078146 1167.93520142 -161.97084359 c 4
 1088.1570029 -186.022374478 1001.81475503 -179.098090213 921 -158.8 c 4
 806.937485686 -130.151132543 699.717992786 -77.7200491113 601 -13.8 c 1028
  Spiro
    106 221.2 {
    291 41.2 o
    516 236.2 [
    726 921.2 ]
    1186 1506.2 o
    1431 1086.2 o
    1100 924 v
    1202.79 902 o
    1388 628 o
    1244.79 440 o
    952 404 v
    1016.79 396 o
    1346 0 o
    921 -158.8 o
    601 -13.8 v
    0 0 z
  EndSpiro
EndSplineSet
Fore
SplineSet
1342.80755618 900.61933269 m 1
 1364.49620354 882.508284908 1384.43237476 861.608371705 1401.44636441 838.05492028 c 0
 1446.4288124 775.78311187 1468.62880444 696.470309906 1456.72071546 617.621499761 c 0
 1448.63892421 564.108326943 1425.74779861 514.894343954 1393.40854892 474.04708943 c 0
 1361.22508228 433.3966023 1320.83772758 401.954951055 1277.6729294 378.771990198 c 0
 1273.59944821 376.584203876 1269.00035409 374.217714446 1264.62460276 372.043141719 c 1
 1286.82918294 356.499259617 1307.97218452 338.789761397 1327.3426136 318.83447366 c 0
 1368.74844287 276.178462592 1401.55538784 223.149430571 1417.82361881 162.853086711 c 0
 1434.13920781 102.381215771 1432.71793452 37.2473451147 1411.58203523 -23.0053614397 c 0
 1393.65420891 -74.1127235308 1362.5292171 -119.143380827 1322.83033148 -154.376394334 c 0
 1283.20988414 -189.539793376 1236.5068516 -213.887616435 1187.99621104 -228.512604108 c 0
 1091.26511239 -257.675095244 992.160583211 -248.331963661 904.069677143 -226.20633626 c 0
 780.529925711 -195.177088958 666.604037778 -139.075886772 563.225834227 -72.1383441673 c 1
 601 -13.8 l 1
 638.774165773 44.5383441673 l 1
 732.831947795 -16.3642114506 833.345045662 -65.1251761275 937.930322857 -91.3936637404 c 0
 1011.46892685 -109.864216766 1085.04889341 -114.369653713 1147.87419179 -95.4290830723 c 0
 1179.14174975 -86.0025398561 1207.86396033 -70.561657748 1230.56407563 -50.4151610272 c 0
 1253.18575265 -30.3382787722 1270.76422009 -4.51484185532 1280.41796477 23.0053614397 c 0
 1291.73056067 55.2544988663 1292.84211503 92.473075962 1283.62237947 126.644974919 c 0
 1274.35528591 160.992400955 1254.47607353 194.335707182 1227.60404727 222.019090649 c 0
 1194.74328158 255.872033814 1152.40954854 281.837921482 1104.25192477 300.466164889 c 0
 1077.84453579 310.6810225 1049.67377719 318.662184136 1020.995914 324.491379969 c 0
 992.687488191 326.167218636 964.269328141 330.095023293 936.963353618 336.146118272 c 1
 957.105107397 473.312249123 l 1
 981.08435543 471.546087469 1004.99075279 468.601687829 1028.71551215 464.468957576 c 0
 1031.54704309 463.975719546 1034.64921482 463.415161811 1037.61772854 462.862229596 c 0
 1065.32108824 461.934591925 1093.18563224 463.961653448 1119.70443318 469.010507397 c 0
 1152.33481979 475.222932183 1183.49369294 485.969277173 1211.90421904 501.228009802 c 0
 1240.73294369 516.711348618 1265.88644792 536.907523032 1284.42856824 560.32781619 c 0
 1302.81490551 583.551341955 1315.1577591 611.088027587 1319.27928454 638.378500239 c 0
 1325.21298186 677.668177521 1313.74857287 722.081305252 1288.76913558 756.661787255 c 0
 1265.68110177 788.623889855 1231.01728669 814.795747804 1190.95748385 831.91163382 c 0
 1186.87282061 833.656840372 1182.7407014 835.30580246 1178.57162115 836.855628149 c 0
 1161.04338177 843.371625437 1142.69652385 848.224709526 1124.06455896 851.316656914 c 0
 1112.27793449 852.161681801 1100.21876335 853.5429952 1088.79490208 855.409215045 c 1
 1104.68387729 993.341987955 l 1
 1116.08707847 992.571730328 1127.55969623 991.341456781 1138.92074515 989.675920574 c 0
 1161.6948499 988.605749814 1184.88180781 990.634596634 1207.10369072 995.666379952 c 0
 1225.83020324 999.906693593 1244.00520487 1006.26389595 1261.04812416 1014.58017762 c 0
 1306.83045527 1036.92017434 1345.95516729 1074.39815718 1369.66723029 1118.88855089 c 0
 1387.39992488 1152.15999438 1397.00602054 1190.01209859 1396.9515776 1227.08153366 c 0
 1396.89720075 1264.10596736 1387.10412887 1301.42137695 1369.00843326 1333.04086184 c 0
 1350.93220833 1364.62632468 1323.82790329 1391.67721982 1292.29168993 1409.57024788 c 0
 1260.77179755 1427.45401574 1223.47197659 1436.96089507 1186.48704044 1436.70170656 c 0
 1136.26109106 1436.34972571 1083.97580593 1417.79571337 1039.96494389 1386.35875735 c 0
 995.736869978 1354.7666469 958.163317181 1309.97708255 927.801740579 1258.73924542 c 0
 866.285192585 1154.92464751 832.09353924 1030.15055257 792.447579919 900.829209076 c 2
 582.447579919 215.829209076 l 2
 574.363070047 189.458307827 565.261931802 159.783240849 550.317247965 129.136070447 c 0
 535.382012274 98.5082754244 515.305851329 68.7448708295 488.546727316 43.2141897401 c 0
 434.336704876 -8.50718926033 359.433928248 -34.6899104611 284.816226733 -28.0243522771 c 0
 221.867714103 -22.4011963099 163.010103099 5.4818137585 118.440640429 49.0778588436 c 0
 73.8469679448 92.6975849895 45.1077576661 150.490564002 37.0799838927 212.24001229 c 1
 106 221.2 l 1
 115.845716587 222.479998244 l 1
 174.920016107 230.15998771 l 1
 178.871432099 199.765788232 193.805980866 169.799415589 215.637382849 148.444821477 c 0
 237.492994646 127.066546304 267.581751331 113.068684595 297.183773267 110.424352277 c 0
 331.069822964 107.397330119 367.987309283 120.305882444 392.594433587 143.783356626 c 0
 405.243882946 155.852102127 416.442025989 171.730495066 425.380153773 190.059977863 c 0
 434.308833412 208.370085281 441.672120188 230.866003178 449.552420081 256.570790924 c 2
 659.552420081 941.570790924 l 2
 698.075892502 1067.23068906 733.779964884 1203.97560154 808.219593889 1329.59903792 c 0
 845.836105786 1393.08021794 894.891500767 1453.55155683 959.171769677 1499.46694892 c 0
 1023.66925045 1545.53749543 1102.39499201 1575.11580704 1185.51295956 1575.69829344 c 0
 1246.42122096 1576.12513538 1307.26036294 1560.89228932 1360.88573808 1530.46630472 c 0
 1414.49479225 1500.04958031 1459.10001494 1455.462987 1489.64914044 1402.08302122 c 0
 1520.17879527 1348.73707749 1535.86202789 1288.15674131 1535.95142769 1227.28567924 c 0
 1536.04076139 1166.45961852 1520.64418083 1106.63149301 1492.33276971 1053.51144911 c 0
 1458.13869672 989.353903193 1405.5547923 936.284581464 1342.80755618 900.61933269 c 1
  Spiro
    1342.81 900.619 v
    1363.85 881.604 o
    1383.52 860.697 o
    1401.45 838.055 o
    1438.39 770.823 o
    1457.69 695.899 o
    1456.72 617.621 o
    1443.92 565.742 o
    1422.37 517.487 o
    1393.41 474.047 o
    1358.73 436.466 o
    1319.67 404.714 o
    1277.67 378.772 o
    1273.46 376.541 o
    1269.04 374.266 o
    1264.62 372.043 v
    1286.43 355.791 o
    1307.43 338.026 o
    1327.34 318.834 o
    1365.55 272.885 o
    1396.36 220.557 o
    1417.82 162.853 o
    1428.15 101.243 o
    1426.21 38.4585 o
    1411.58 -23.0054 o
    1389.45 -71.9027 o
    1359.47 -116.057 o
    1322.83 -154.376 o
    1281.09 -185.947 o
    1235.66 -210.627 o
    1188 -228.513 o
    1091.07 -245.786 o
    995.242 -243.108 o
    904.07 -226.206 o
    783.886 -187.393 o
    669.975 -134.878 o
    563.226 -72.1383 v
    601 -13.8 v
    638.774 44.5383 v
    734.797 -11.882 o
    834.892 -58.0512 o
    937.93 -91.3937 o
    1011.01 -104.85 o
    1081.93 -106.901 o
    1147.87 -95.4291 o
    1178.14 -84.0595 o
    1206.01 -68.9278 o
    1230.56 -50.4152 o
    1251.38 -28.5962 o
    1268.24 -3.77332 o
    1280.42 23.0054 o
    1288.32 56.5794 o
    1289.4 91.7897 o
    1283.62 126.645 o
    1270.97 160.452 o
    1251.99 192.652 o
    1227.6 222.019 o
    1191.76 253.235 o
    1150.29 279.395 o
    1104.25 300.466 o
    1077.33 309.931 o
    1049.43 317.949 o
    1021 324.491 o
    992.724 326.91 o
    964.567 330.812 o
    936.963 336.146 v
    957.105 473.312 v
    981.032 471.156 o
    1004.96 468.203 o
    1028.72 464.469 o
    1031.62 463.957 o
    1034.62 463.414 o
    1037.62 462.862 o
    1065.29 462.921 o
    1092.82 464.969 o
    1119.7 469.011 o
    1151.77 476.724 o
    1182.65 487.486 o
    1211.9 501.228 o
    1239.37 518.209 o
    1263.81 538.058 o
    1284.43 560.328 o
    1300.71 584.795 o
    1312.51 611.202 o
    1319.28 638.379 o
    1319.56 678.781 o
    1309.08 719.397 o
    1288.77 756.662 o
    1262.08 786.545 o
    1228.95 811.921 o
    1190.96 831.912 o
    1186.86 833.623 o
    1182.72 835.274 o
    1178.57 836.856 o
    1160.81 842.808 o
    1142.56 847.646 o
    1124.06 851.317 o
    1112.23 852.337 o
    1100.39 853.708 o
    1088.79 855.409 v
    1104.68 993.342 v
    1116.09 992.42 o
    1127.54 991.194 o
    1138.92 989.676 o
    1161.76 989.634 o
    1184.63 991.642 o
    1207.1 995.666 o
    1225.61 1000.6 o
    1243.67 1006.93 o
    1261.05 1014.58 o
    1304.25 1041.63 o
    1341.17 1077.08 o
    1369.67 1118.89 o
    1384.62 1153.45 o
    1393.85 1189.99 o
    1396.95 1227.08 o
    1393.71 1263.94 o
    1384.27 1299.78 o
    1369.01 1333.04 o
    1348.12 1362.92 o
    1322.15 1388.82 o
    1292.29 1409.57 o
    1259.11 1424.6 o
    1223.31 1433.76 o
    1186.49 1436.7 o
    1136.01 1430.49 o
    1086.3 1413.28 o
    1039.96 1386.36 o
    998.015 1350.66 o
    960.512 1307.53 o
    927.802 1258.74 o
    874.226 1148.66 o
    831.45 1027.9 o
    792.448 900.829 [
    582.448 215.829 ]
    573.855 188.472 o
    563.481 159.343 o
    550.317 129.136 o
    533.63 98.9508 o
    513.113 70.003 o
    488.547 43.2142 o
    428.282 0.310316 o
    358.68 -24.0256 o
    284.816 -28.0244 o
    223.668 -15.2434 o
    167.342 10.9944 o
    118.441 49.0779 o
    79.3452 96.9917 o
    51.8104 152.246 o
    37.08 212.24 v
    106 221.2 v
    115.846 222.48 v
    174.92 230.16 v
    182.37 200.241 o
    196.273 172.341 o
    215.637 148.445 o
    239.888 129.69 o
    267.771 116.696 o
    297.184 110.424 o
    331.478 112.503 o
    364.483 124.043 o
    392.594 143.783 o
    404.719 157.057 o
    415.729 172.614 o
    425.38 190.06 o
    433.856 209.708 o
    441.775 231.995 o
    449.552 256.571 [
    659.552 941.571 ]
    698.634 1069.97 o
    745.206 1201.22 o
    808.22 1329.6 o
    849.744 1391.59 o
    899.881 1449.18 o
    959.172 1499.47 o
    1027.97 1539.54 o
    1104.3 1565.93 o
    1185.51 1575.7 o
    1246.07 1570.93 o
    1305.18 1555.79 o
    1360.89 1530.47 o
    1411.26 1495.56 o
    1454.64 1452.29 o
    1489.65 1402.08 o
    1515.18 1346.64 o
    1530.7 1287.74 o
    1535.95 1227.29 o
    1530.98 1167.06 o
    1516.22 1108.6 o
    1492.33 1053.51 o
    1452.36 993.34 o
    1401.81 941.805 o
    0 0 z
  EndSpiro
EndSplineSet
EndChar

StartChar: _ra.2
Encoding: 43 57348 43
Width: 2146
VWidth: 2048
Flags: W
HStem: 164 139<423.947 947.785> 336 139<1226.78 1771.34> 870 140<503.134 946.975> 1047 139<1264.7 1767.24>
VStem: 193 157<375.435 722.519>
AnchorPoint: "Anchor-1" 1131 0 basechar 0
AnchorPoint: "Anchor-0" 1080 1420 basechar 0
LayerCount: 2
Fore
SplineSet
596 303 m 0
 671.333333333 303 746.166666667 309.833333333 820.5 323.5 c 0
 894.833333333 337.166666667 981 359 1079 389 c 0
 1202.33333333 425 1293.83333333 448.333333333 1353.5 459 c 0
 1413.16666667 469.666666667 1470 475 1524 475 c 0
 1616 475 1702.33333333 460.5 1783 431.5 c 0
 1863.66666667 402.5 1950 354.333333333 2042 287 c 1
 1956 176 l 1
 1871.33333333 238.666666667 1795.83333333 281 1729.5 303 c 0
 1663.16666667 325 1585.66666667 336 1497 336 c 0
 1422.33333333 336 1328.66666667 318.666666667 1216 284 c 0
 1150.66666667 264 1073.16666667 242.333333333 983.5 219 c 0
 893.833333333 195.666666667 819.5 180.666666667 760.5 174 c 0
 701.5 167.333333333 646 164 594 164 c 0
 471.333333333 164 373.833333333 196.166666667 301.5 260.5 c 0
 229.166666667 324.833333333 193 409.333333333 193 514 c 0
 193 597.333333333 210.333333333 672.333333333 245 739 c 0
 279.666666667 805.666666667 322.333333333 862.333333333 373 909 c 1
 283 942.333333333 193.333333333 992.333333333 104 1059 c 1
 182 1174 l 1
 267.333333333 1112.66666667 341.5 1070 404.5 1046 c 0
 467.5 1022 540.333333333 1010 623 1010 c 0
 733.731478104 1010 864.842114506 1032.92655309 1016.33190921 1078.77965926 c 1
 849.458472903 1271.50672654 l 1
 902 1317 l 1
 954.541527097 1362.49327346 l 1
 1160.97424399 1124.07802296 l 1
 1302.863496 1165.35934099 1423.87208134 1186 1524 1186 c 0
 1616 1186 1702 1171.66666667 1782 1143 c 0
 1862 1114.33333333 1948.66666667 1065.66666667 2042 997 c 1
 1956 887 l 1
 1870 950.333333333 1793 992.833333333 1725 1014.5 c 0
 1657 1036.16666667 1581 1047 1497 1047 c 0
 1433.47651882 1047 1354.99462577 1033.97170578 1261.55432082 1007.91511733 c 1
 1380.5415271 870.493273462 l 1
 1328 825 l 1
 1275.4584729 779.506726538 l 1
 1115.81639101 963.882088723 l 1
 994.791136267 927.715938616 902.352339266 903.755242376 838.5 892 c 0
 758.833333333 877.333333333 685.333333333 870 618 870 c 0
 588.666666667 870 560 871.333333333 532 874 c 1
 479.333333333 836.666666667 435.833333333 787.833333333 401.5 727.5 c 0
 367.166666667 667.166666667 350 597.333333333 350 518 c 0
 350 452.666666667 370.5 400.5 411.5 361.5 c 0
 452.5 322.5 514 303 596 303 c 0
EndSplineSet
EndChar

StartChar: _ra.3
Encoding: 44 57349 44
Width: 2146
VWidth: 2048
Flags: W
HStem: 164 139<423.947 947.785> 336 139<1226.78 1771.34> 581.025 258.75<1056.7 1222.14> 870 140<503.134 946.053> 1047 139<1229.63 1767.24>
VStem: 193 157<375.435 722.519> 1021.31 237.375<613.518 807.862>
AnchorPoint: "Anchor-1" 1131 0 basechar 0
AnchorPoint: "Anchor-0" 1080 1420 basechar 0
LayerCount: 2
Fore
SplineSet
1021.3125 710.400390625 m 0
 1021.3125 755.400390625 1032.75 788.212890625 1055.625 808.837890625 c 0
 1078.5 829.462890625 1106.8125 839.775390625 1140.5625 839.775390625 c 0
 1172.0625 839.775390625 1199.625 829.462890625 1223.25 808.837890625 c 0
 1246.875 788.212890625 1258.6875 755.400390625 1258.6875 710.400390625 c 0
 1258.6875 666.150390625 1246.875 633.525390625 1223.25 612.525390625 c 0
 1199.625 591.525390625 1172.0625 581.025390625 1140.5625 581.025390625 c 0
 1106.8125 581.025390625 1078.5 591.525390625 1055.625 612.525390625 c 0
 1032.75 633.525390625 1021.3125 666.150390625 1021.3125 710.400390625 c 0
596 303 m 0
 671.333333333 303 746.166666667 309.833333333 820.5 323.5 c 0
 894.833333333 337.166666667 981 359 1079 389 c 0
 1202.33333333 425 1293.83333333 448.333333333 1353.5 459 c 0
 1413.16666667 469.666666667 1470 475 1524 475 c 0
 1616 475 1702.33333333 460.5 1783 431.5 c 0
 1863.66666667 402.5 1950 354.333333333 2042 287 c 1
 1956 176 l 1
 1871.33333333 238.666666667 1795.83333333 281 1729.5 303 c 0
 1663.16666667 325 1585.66666667 336 1497 336 c 0
 1422.33333333 336 1328.66666667 318.666666667 1216 284 c 0
 1150.66666667 264 1073.16666667 242.333333333 983.5 219 c 0
 893.833333333 195.666666667 819.5 180.666666667 760.5 174 c 0
 701.5 167.333333333 646 164 594 164 c 0
 471.333333333 164 373.833333333 196.166666667 301.5 260.5 c 0
 229.166666667 324.833333333 193 409.333333333 193 514 c 0
 193 597.333333333 210.333333333 672.333333333 245 739 c 0
 279.666666667 805.666666667 322.333333333 862.333333333 373 909 c 1
 283 942.333333333 193.333333333 992.333333333 104 1059 c 1
 182 1174 l 1
 267.333333333 1112.66666667 341.5 1070 404.5 1046 c 0
 467.5 1022 540.333333333 1010 623 1010 c 0
 749.666666667 1010 903 1040 1083 1100 c 0
 1259 1157.33333333 1406 1186 1524 1186 c 0
 1616 1186 1702 1171.66666667 1782 1143 c 0
 1862 1114.33333333 1948.66666667 1065.66666667 2042 997 c 1
 1956 887 l 1
 1870 950.333333333 1793 992.833333333 1725 1014.5 c 0
 1657 1036.16666667 1581 1047 1497 1047 c 0
 1422.33333333 1047 1327 1029 1211 993 c 0
 1042.33333333 940.333333333 918.166666667 906.666666667 838.5 892 c 0
 758.833333333 877.333333333 685.333333333 870 618 870 c 0
 588.666666667 870 560 871.333333333 532 874 c 1
 479.333333333 836.666666667 435.833333333 787.833333333 401.5 727.5 c 0
 367.166666667 667.166666667 350 597.333333333 350 518 c 0
 350 452.666666667 370.5 400.5 411.5 361.5 c 0
 452.5 322.5 514 303 596 303 c 0
EndSplineSet
EndChar

StartChar: _ra.4
Encoding: 45 57350 45
Width: 2146
VWidth: 2048
Flags: W
HStem: 164 139<423.947 947.785> 336 139<1453.55 1771.06> 870 140<503.134 946.053> 1047 139<1229.63 1767.24>
VStem: 193 157<375.435 722.519>
AnchorPoint: "Anchor-0" 1080 1420 basechar 0
AnchorPoint: "Anchor-1" 1131 0 basechar 0
LayerCount: 2
Back
SplineSet
1552.5 25 m 5
 1552.5 25 1432.36582708 243.905961311 1352.5 358 c 4
 1254.5 498 1158.5 615 1158.5 615 c 1029
EndSplineSet
Fore
SplineSet
596 303 m 0
 671.333333333 303 746.166666667 309.833333333 820.5 323.5 c 0
 894.833333333 337.166666667 981 359 1079 389 c 0
 1130.32145119 403.980315483 1176.13077767 416.767324799 1216.42797945 427.361027949 c 1
 1153.2759175 511.824024627 1104.76549362 570.922195783 1104.76549362 570.922195783 c 1
 1158.5 615 l 1
 1212.23450638 659.077804217 l 2
 1212.78705694 658.404199159 1282.44781898 573.538272786 1364.41675996 460.897425683 c 1
 1420.10850419 470.299141905 1473.30291754 475.000000016 1524 475 c 0
 1616 475 1702.33333333 460.5 1783 431.5 c 0
 1863.66666667 402.5 1950 354.333333333 2042 287 c 1
 1956 176 l 1
 1871.33333333 238.666666667 1795.83333333 281 1729.5 303 c 0
 1663.16666667 325 1585.66666667 336 1497 336 c 0
 1482.6346956 336 1467.56610881 335.358409052 1451.79423963 334.075227155 c 1
 1528.57638546 213.606186556 1612.91175937 59.3774467601 1613.42540471 58.4416665431 c 2
 1552.5 25 l 1
 1491.57459529 -8.44166654306 l 1
 1491.57459529 -8.44166654306 1378.8320502 196.45749055 1302.48444042 308.135767442 c 1
 1275.0207644 301.335291998 1246.1926176 293.290036184 1216 284 c 0
 1150.66666667 264 1073.16666667 242.333333333 983.5 219 c 0
 893.833333333 195.666666667 819.5 180.666666667 760.5 174 c 0
 701.5 167.333333333 646 164 594 164 c 0
 471.333333333 164 373.833333333 196.166666667 301.5 260.5 c 0
 229.166666667 324.833333333 193 409.333333333 193 514 c 0
 193 597.333333333 210.333333333 672.333333333 245 739 c 0
 279.666666667 805.666666667 322.333333333 862.333333333 373 909 c 1
 283 942.333333333 193.333333333 992.333333333 104 1059 c 1
 182 1174 l 1
 267.333333333 1112.66666667 341.5 1070 404.5 1046 c 0
 467.5 1022 540.333333333 1010 623 1010 c 0
 749.666666667 1010 903 1040 1083 1100 c 0
 1259 1157.33333333 1406 1186 1524 1186 c 0
 1616 1186 1702 1171.66666667 1782 1143 c 0
 1862 1114.33333333 1948.66666667 1065.66666667 2042 997 c 1
 1956 887 l 1
 1870 950.333333333 1793 992.833333333 1725 1014.5 c 0
 1657 1036.16666667 1581 1047 1497 1047 c 0
 1422.33333333 1047 1327 1029 1211 993 c 0
 1042.33333333 940.333333333 918.166666667 906.666666667 838.5 892 c 0
 758.833333333 877.333333333 685.333333333 870 618 870 c 0
 588.666666667 870 560 871.333333333 532 874 c 1
 479.333333333 836.666666667 435.833333333 787.833333333 401.5 727.5 c 0
 367.166666667 667.166666667 350 597.333333333 350 518 c 0
 350 452.666666667 370.5 400.5 411.5 361.5 c 0
 452.5 322.5 514 303 596 303 c 0
EndSplineSet
EndChar

StartChar: _da.2
Encoding: 46 57351 46
Width: 2146
VWidth: 0
InSpiro: 1
Flags: W
HStem: 347.505 138.99<1232.61 1779.64> 830.199 136.305<513.427 731.422>
VStem: 187.09 138.82<415.504 726.982>
AnchorPoint: "Anchor-1" 1131 0 basechar 0
AnchorPoint: "Anchor-0" 1080 1420 basechar 0
LayerCount: 2
Back
SplineSet
1996.5 941 m 0
 1868.69972435 1045.48020037 1708.81288541 1109.17917781 1544.5 1125 c 0
 1343.2761546 1144.3747841 1142.39471849 1090.32830667 952.5 1021 c 0
 827.412083056 975.331886977 703.65088346 921.190478522 571.827268343 902.346434107 c 0
 505.915460771 892.924411932 437.139025602 893.497836941 374.558741748 916.232149157 c 0
 343.26859982 927.599305264 313.803104446 944.642564854 289.896378284 967.810509607 c 0
 265.989652123 990.97845436 247.766686787 1020.51184088 240.5 1053 c 0
 232.648891671 1088.10101144 238.499305713 1126.77727223 259.468934351 1156.00047501 c 0
 269.95374867 1170.6120764 284.010207278 1182.6848167 300.172961359 1190.57123586 c 0
 316.335715439 1198.45765501 334.549675294 1202.10275542 352.5 1201 c 0
 370.565921759 1199.89014302 388.278495168 1193.98802817 403.559446806 1184.28741847 c 0
 418.840398444 1174.58680877 431.662761348 1161.16091677 441.132283912 1145.73569542 c 0
 460.07132904 1114.8852527 465.153338233 1076.89963355 460.5 1041 c 0
 454.660730293 995.951127087 434.777282043 953.875860535 411.560308824 914.831396446 c 0
 388.343335606 875.786932357 361.56843281 838.979296683 337.327488542 800.562182757 c 0
 313.086544274 762.14506883 291.274422233 721.91785144 276.516876469 678.956090948 c 0
 261.759330705 635.994330457 254.189343261 590.366936054 256.5 545 c 0
 260.216620004 472.028684436 290.616262775 400.848629929 340.380231451 347.349344129 c 0
 390.144200126 293.850058329 457.526092198 258.358875847 528.5 241 c 0
 612.190746054 220.530825972 700.289799914 224.063320879 785.071748776 239.397896437 c 0
 869.853697638 254.732471996 952.088442729 281.530302307 1033.76199546 308.963108308 c 0
 1197.10910091 363.828720309 1364.19730031 419.07169518 1536.5 417 c 0
 1702.48006966 415.004325464 1868.39873414 358.562455097 1996.5 253 c 1024
  Spiro
    1996.5 941 {
    1544.5 1125 o
    952.5 1021 o
    240.5 1053 o
    352.5 1201 o
    460.5 1041 o
    256.5 545 o
    528.5 241 o
    1536.5 417 o
    1996.5 253 o
    0 0 z
  EndSpiro
596 303 m 0
 671.333333333 303 746.166666667 309.833333333 820.5 323.5 c 128
 894.833333333 337.166666667 981 359 1079 389 c 0
 1202.33333333 425 1293.83333333 448.333333333 1353.5 459 c 128
 1413.16666667 469.666666667 1470 475 1524 475 c 0
 1616 475 1702.33333333 460.5 1783 431.5 c 128
 1863.66666667 402.5 1950 354.333333333 2042 287 c 1
 1956 176 l 1
 1871.33333333 238.666666667 1795.83333333 281 1729.5 303 c 128
 1663.16666667 325 1585.66666667 336 1497 336 c 0
 1422.33333333 336 1328.66666667 318.666666667 1216 284 c 0
 1150.66666667 264 1073.16666667 242.333333333 983.5 219 c 128
 893.833333333 195.666666667 819.5 180.666666667 760.5 174 c 128
 701.5 167.333333333 646 164 594 164 c 0
 471.333333333 164 373.833333333 196.166666667 301.5 260.5 c 128
 229.166666667 324.833333333 193 409.333333333 193 514 c 0
 193 597.333333333 210.333333333 672.333333333 245 739 c 128
 279.666666667 805.666666667 322.333333333 862.333333333 373 909 c 1
 283 942.333333333 193.333333333 992.333333333 104 1059 c 1
 182 1174 l 1
 267.333333333 1112.66666667 341.5 1070 404.5 1046 c 128
 467.5 1022 540.333333333 1010 623 1010 c 0
 749.666666667 1010 903 1040 1083 1100 c 0
 1259 1157.33333333 1406 1186 1524 1186 c 0
 1616 1186 1702 1171.66666667 1782 1143 c 128
 1862 1114.33333333 1948.66666667 1065.66666667 2042 997 c 1
 1956 887 l 1
 1870 950.333333333 1793 992.833333333 1725 1014.5 c 128
 1657 1036.16666667 1581 1047 1497 1047 c 0
 1422.33333333 1047 1327 1029 1211 993 c 0
 1042.33333333 940.333333333 918.166666667 906.666666667 838.5 892 c 128
 758.833333333 877.333333333 685.333333333 870 618 870 c 0
 588.666666667 870 560 871.333333333 532 874 c 1
 479.333333333 836.666666667 435.833333333 787.833333333 401.5 727.5 c 128
 367.166666667 667.166666667 350 597.333333333 350 518 c 0
 350 452.666666667 370.5 400.5 411.5 361.5 c 128
 452.5 322.5 514 303 596 303 c 0
  Spiro
    596 303 o
    708.625 308.125 o
    820.5 323.5 o
    940.875 350.125 o
    1079 389 o
    1240.12 433.5 o
    1353.5 459 o
    1412.16 467.882 o
    1469.11 473.226 o
    1524 475 o
    1614.02 470.176 o
    1700.53 455.647 o
    1783 431.5 o
    1865.47 396.153 o
    1951.98 347.89 o
    2042 287 v
    1956 176 v
    1835.87 254.75 o
    1729.5 303 o
    1621.63 327.75 o
    1497 336 o
    1416.09 330.234 o
    1322.23 312.866 o
    1216 284 o
    1108.88 252.75 o
    983.5 219 o
    860.5 190.25 o
    760.5 174 o
    674.625 166.5 o
    594 164 o
    428.875 188.125 o
    301.5 260.5 o
    220.125 372.125 o
    193 514 o
    206 632.75 o
    245 739 o
    303 831.5 o
    373 909 v
    238.25 971.5 o
    104 1059 v
    182 1174 v
    263.533 1118.94 o
    337.848 1076.19 o
    404.5 1046 o
    506.375 1019 o
    623 1010 o
    833 1032.5 o
    1083 1100 o
    1249.18 1147.74 o
    1396.47 1176.46 o
    1524 1186 o
    1613.91 1181.23 o
    1700.08 1166.87 o
    1782 1143 o
    1864.14 1107.71 o
    1950.98 1058.94 o
    2042 997 v
    1956 887 v
    1833.75 966.375 o
    1725 1014.5 o
    1654.41 1032.54 o
    1578.25 1043.4 o
    1497 1047 o
    1415.53 1041.01 o
    1320.01 1022.98 o
    1211 993 o
    1057.31 946.707 o
    932.891 912.973 o
    838.5 892 o
    723.625 875.5 o
    618 870 o
    574.5 871 o
    532 874 v
    459.875 809.375 o
    401.5 727.5 o
    362.875 629.875 o
    350 518 o
    365.375 429.875 o
    411.5 361.5 o
    488.375 317.625 o
    0 0 z
  EndSpiro
EndSplineSet
Fore
SplineSet
1996.5 941 m 1
 1952.51107631 887.192708739 l 1
 1835.95315585 982.481978061 1688.84274345 1041.28058225 1537.83901603 1055.81993573 c 0
 1353.39321149 1073.57925065 1162.7460513 1023.77137269 976.334832803 955.7148505 c 0
 854.180549994 911.117772462 725.855324167 854.158075246 581.662241076 833.54582865 c 0
 536.513498921 827.091864399 488.67343945 824.608429509 440.173832497 830.199486117 c 1
 424.724811595 806.892542752 409.56922652 784.813209642 396.104501529 763.474277122 c 0
 373.485766865 727.628045356 354.49501907 692.033416363 342.247060135 656.37749588 c 0
 330.011880324 620.758777634 324.113037873 583.816969465 325.910028944 548.53523436 c 0
 328.771449426 492.35472178 352.705870965 436.141847112 391.268542112 394.684635804 c 0
 430.119109397 352.917918681 485.161204854 323.14840063 545.01169457 308.510102521 c 0
 615.908939096 291.169977062 694.198659462 293.58928273 772.701937096 307.78823025 c 0
 851.274708752 321.999747206 930.332303333 347.53844649 1011.63300709 374.846018641 c 0
 1174.84170341 429.665141283 1349.63584405 488.751799507 1537.33557837 486.49497686 c 0
 1718.2531022 484.319700659 1899.2785252 423.173074128 2040.69844135 306.63532215 c 1
 1996.5 253 l 1
 1952.30155865 199.36467785 l 1
 1837.51894309 293.951836065 1686.70703712 345.688950269 1535.66442163 347.50502314 c 0
 1378.75875657 349.391590852 1219.37649842 297.992299336 1055.89098382 243.080197974 c 0
 973.844582124 215.522158124 888.432686524 187.465196786 797.441560457 171.007562624 c 0
 706.380940367 154.537359027 608.472553011 149.891674881 511.98830543 173.489897479 c 0
 429.890979541 193.569351064 350.169290855 234.782197978 289.491920789 300.014052454 c 0
 228.526654585 365.555412745 191.661790583 451.702647092 187.089971056 541.46476564 c 0
 184.265648648 596.916902643 193.506781085 651.22988328 210.786692803 701.534686016 c 0
 228.053825396 751.802286516 252.687321683 796.662092304 278.550475556 837.650088391 c 0
 286.160744516 849.710863188 294.105514611 861.763314919 301.796897399 873.299258565 c 1
 280.441685527 885.312953997 259.871722233 900.126243015 241.52966874 917.901478282 c 0
 209.275873671 949.158545317 183.398526978 989.89048786 172.675884725 1037.82965435 c 0
 161.012296264 1089.97563615 168.649858655 1148.64578147 203.002245987 1196.51915102 c 0
 220.033187711 1220.25341318 242.699847485 1239.86001836 269.695810993 1253.03237022 c 0
 296.721749938 1266.21934822 326.627268497 1272.22048501 356.761610009 1270.36921998 c 0
 387.082211587 1268.50651229 415.83443535 1258.8164028 440.807683409 1242.96295741 c 0
 465.736430486 1227.137762 485.696971317 1205.98461572 500.361787272 1182.09660756 c 0
 529.796434422 1134.14952841 535.631578509 1079.96101494 529.423402037 1032.06609539 c 0
 526.437337004 1009.02916253 520.672349076 987.008496117 513.42691011 966.504275593 c 1
 529.398657733 967.208383243 545.686431454 968.816133779 561.992295609 971.147039565 c 0
 681.446442753 988.222881798 800.643616118 1039.54600149 928.665167197 1086.2851495 c 0
 1122.04338568 1156.88524065 1333.15909771 1215.17031754 1551.16098397 1194.18006427 c 0
 1728.78302736 1177.07777337 1901.44629286 1108.47842269 2040.48892369 994.807291261 c 1
 1996.5 941 l 1
  Spiro
    1996.5 941 v
    1952.51 887.193 v
    1826.89 969.961 o
    1686.41 1026.86 o
    1537.84 1055.82 o
    1351.9 1052.91 o
    1163.58 1015.81 o
    976.335 955.715 o
    851.892 908.848 o
    720.79 864.43 o
    581.662 833.546 o
    535.738 828.571 o
    488.331 827.149 o
    440.174 830.199 v
    424.889 807.306 o
    410.067 785.056 o
    396.105 763.474 o
    374.83 727.736 o
    356.611 691.989 o
    342.247 656.377 o
    332.182 620.464 o
    326.625 584.224 o
    325.91 548.535 o
    335.541 492.946 o
    357.849 440.463 o
    391.269 394.685 o
    435.046 357.066 o
    487.241 328.052 o
    545.012 308.51 o
    618.032 297.466 o
    694.613 297.817 o
    772.702 307.788 o
    851.422 325.401 o
    931.095 348.507 o
    1011.63 374.846 o
    1178.58 428.607 o
    1354.07 470.765 o
    1537.34 486.495 o
    1716.64 464.836 o
    1887.71 404.498 o
    2040.7 306.635 v
    1996.5 253 v
    1952.3 199.365 v
    1826.97 279.341 o
    1685.16 329.345 o
    1535.66 347.505 o
    1378.03 333.501 o
    1217.91 294.931 o
    1055.89 243.08 o
    972.725 215.83 o
    886.567 190.861 o
    797.442 171.008 o
    704.499 159.094 o
    608.544 158.705 o
    511.988 173.49 o
    431.379 200.686 o
    355.829 242.731 o
    289.492 300.014 o
    236.908 371.717 o
    202.098 453.622 o
    187.09 541.465 o
    188.134 596.377 o
    196.347 650.053 o
    210.787 701.535 o
    230.261 750.01 o
    253.349 795.358 o
    278.55 837.65 o
    286.243 849.677 o
    294.051 861.622 o
    301.797 873.299 v
    280.778 886.238 o
    260.541 901.123 o
    241.53 917.901 o
    211.754 952.196 o
    188.105 992.42 o
    172.676 1037.83 o
    167.719 1091.45 o
    177.298 1145.74 o
    203.002 1196.52 o
    221.843 1218.77 o
    244.215 1237.82 o
    269.696 1253.03 o
    297.555 1263.79 o
    326.831 1269.63 o
    356.762 1270.37 o
    386.449 1265.97 o
    414.684 1256.69 o
    440.808 1242.96 o
    464.047 1225.48 o
    483.962 1204.96 o
    500.362 1182.1 o
    522.343 1132.58 o
    531.192 1081.54 o
    529.423 1032.07 o
    525.564 1009.41 o
    520.125 987.474 o
    513.427 966.504 v
    529.477 967.502 o
    545.72 969.066 o
    561.992 971.147 o
    681.577 998.165 o
    803.372 1039.5 o
    928.665 1086.29 o
    1127.35 1150.25 o
    1336.07 1191.25 o
    1551.16 1194.18 o
    1725.9 1160.2 o
    1891.46 1093.13 o
    2040.49 994.807 v
    0 0 z
  EndSpiro
374.020393851 992.237250349 m 1
 383.143130564 1012.48670725 389.238098751 1031.89282087 391.576597963 1049.93390461 c 0
 394.675097958 1073.83825216 390.346223658 1095.62097699 381.902780552 1109.37478328 c 0
 377.628551379 1116.33721783 371.944366403 1122.03585554 366.311210203 1125.61187953 c 0
 360.722554985 1129.15965353 354.04963193 1131.27377375 348.238389991 1131.63078002 c 0
 342.472082091 1131.98502583 335.949680941 1130.6959618 330.650111724 1128.11010149 c 0
 325.32056707 1125.50961504 319.874309629 1120.97073963 315.935622716 1115.48179901 c 0
 308.348752771 1104.90876299 304.285487079 1086.22638673 308.324115275 1068.17034565 c 0
 312.134846595 1051.1331939 322.703430575 1032.7983634 338.263087829 1017.71954093 c 0
 348.267334325 1008.02445226 360.355176041 999.424717489 374.020393851 992.237250349 c 1
  Spiro
    374.02 992.237 v
    382.1 1012.17 o
    388.018 1031.48 o
    391.577 1049.93 o
    392.323 1072.89 o
    388.847 1093.18 o
    381.903 1109.37 o
    377.218 1115.88 o
    371.902 1121.37 o
    366.311 1125.61 o
    360.439 1128.67 o
    354.259 1130.7 o
    348.238 1131.63 o
    342.299 1131.45 o
    336.278 1130.25 o
    330.65 1128.11 o
    325.347 1124.9 o
    320.312 1120.61 o
    315.936 1115.48 o
    309.698 1102.54 o
    306.816 1086.09 o
    308.324 1068.17 o
    314.314 1050.89 o
    324.445 1033.7 o
    338.263 1017.72 o
    348.932 1008.41 o
    360.912 999.876 o
    0 0 z
  EndSpiro
EndSplineSet
EndChar

StartChar: _ra.5
Encoding: 47 57352 47
Width: 2146
VWidth: 0
Flags: W
HStem: 347.505 138.99<1447.39 1779.64> 830.199 136.305<513.427 731.422>
VStem: 187.09 138.82<415.504 726.982>
AnchorPoint: "Anchor-1" 1131 0 basechar 0
AnchorPoint: "Anchor-0" 1080 1420 basechar 0
LayerCount: 2
Fore
SplineSet
374.020393851 992.237250349 m 1
 383.143130564 1012.48670725 389.238098751 1031.89282087 391.576597963 1049.93390461 c 0
 394.675097958 1073.83825216 390.346223658 1095.62097699 381.902780552 1109.37478328 c 0
 377.628551379 1116.33721783 371.944366403 1122.03585554 366.311210203 1125.61187953 c 0
 360.722554985 1129.15965353 354.04963193 1131.27377375 348.238389991 1131.63078002 c 0
 342.472082091 1131.98502583 335.949680941 1130.6959618 330.650111724 1128.11010149 c 0
 325.32056707 1125.50961504 319.874309629 1120.97073963 315.935622716 1115.48179901 c 0
 308.348752771 1104.90876299 304.285487079 1086.22638673 308.324115275 1068.17034565 c 0
 312.134846595 1051.1331939 322.703430575 1032.7983634 338.263087829 1017.71954093 c 0
 348.267334325 1008.02445226 360.355176041 999.424717489 374.020393851 992.237250349 c 1
1996.5 941 m 1
 1952.51107631 887.192708739 l 1
 1835.95315585 982.481978061 1688.84274345 1041.28058225 1537.83901603 1055.81993573 c 0
 1353.39321149 1073.57925065 1162.7460513 1023.77137269 976.334832803 955.7148505 c 0
 854.180549994 911.117772462 725.855324167 854.158075246 581.662241076 833.54582865 c 0
 536.513498921 827.091864399 488.67343945 824.608429509 440.173832497 830.199486117 c 1
 424.724811595 806.892542752 409.56922652 784.813209642 396.104501529 763.474277122 c 0
 373.485766865 727.628045356 354.49501907 692.033416363 342.247060135 656.37749588 c 0
 330.011880324 620.758777634 324.113037873 583.816969465 325.910028944 548.53523436 c 0
 328.771449426 492.35472178 352.705870965 436.141847112 391.268542112 394.684635804 c 0
 430.119109397 352.917918681 485.161204854 323.14840063 545.01169457 308.510102521 c 0
 615.908939096 291.169977062 694.198659462 293.58928273 772.701937096 307.78823025 c 0
 851.274708752 321.999747206 930.332303333 347.53844649 1011.63300709 374.846018641 c 0
 1075.60264913 396.332371582 1141.35210239 418.4743237 1208.96085735 437.32122423 c 1
 1149.49209235 516.433696701 1104.76549362 570.922195783 1104.76549362 570.922195783 c 2
 1158.5 615 l 1
 1212.23450638 659.077804217 l 2
 1212.76999642 658.424997357 1278.21201659 578.69864302 1356.86102525 471.250010285 c 1
 1415.66340042 481.382729098 1475.80608375 487.23478162 1537.33557837 486.49497686 c 0
 1718.2531022 484.319700659 1899.2785252 423.173074128 2040.69844135 306.63532215 c 1
 1996.5 253 l 1
 1952.30155865 199.36467785 l 1
 1837.51894309 293.951836065 1686.70703712 345.688950269 1535.66442163 347.50502314 c 0
 1505.86279644 347.863345345 1475.97182891 346.299396515 1445.98037349 343.154211078 c 1
 1524.25378772 221.511161213 1612.89875947 59.4011305199 1613.42540471 58.4416665431 c 2
 1552.5 25 l 1
 1491.57459529 -8.44166654306 l 1
 1491.57459529 -8.44166654306 1373.17746546 206.734175781 1296.88016605 316.258663591 c 1
 1217.43135018 296.811368146 1137.16824909 270.379897521 1055.89098382 243.080197974 c 0
 973.844582124 215.522158124 888.432686524 187.465196786 797.441560457 171.007562624 c 0
 706.380940367 154.537359027 608.472553011 149.891674881 511.98830543 173.489897479 c 0
 429.890979541 193.569351064 350.169290855 234.782197978 289.491920789 300.014052454 c 0
 228.526654585 365.555412745 191.661790583 451.702647092 187.089971056 541.46476564 c 0
 184.265648648 596.916902643 193.506781085 651.22988328 210.786692803 701.534686016 c 0
 228.053825396 751.802286516 252.687321683 796.662092304 278.550475556 837.650088391 c 0
 286.160744516 849.710863188 294.105514611 861.763314919 301.796897399 873.299258565 c 1
 280.441685527 885.312953997 259.871722233 900.126243015 241.52966874 917.901478282 c 0
 209.275873671 949.158545317 183.398526978 989.89048786 172.675884725 1037.82965435 c 0
 161.012296264 1089.97563615 168.649858655 1148.64578147 203.002245987 1196.51915102 c 0
 220.033187711 1220.25341318 242.699847485 1239.86001836 269.695810993 1253.03237022 c 0
 296.721749938 1266.21934822 326.627268497 1272.22048501 356.761610009 1270.36921998 c 0
 387.082211587 1268.50651229 415.83443535 1258.8164028 440.807683409 1242.96295741 c 0
 465.736430486 1227.137762 485.696971317 1205.98461572 500.361787272 1182.09660756 c 0
 529.796434422 1134.14952841 535.631578509 1079.96101494 529.423402037 1032.06609539 c 0
 526.437337004 1009.02916253 520.672349076 987.008496117 513.42691011 966.504275593 c 1
 529.398657733 967.208383243 545.686431454 968.816133779 561.992295609 971.147039565 c 0
 681.446442753 988.222881798 800.643616118 1039.54600149 928.665167197 1086.2851495 c 0
 1122.04338568 1156.88524065 1333.15909771 1215.17031754 1551.16098397 1194.18006427 c 0
 1728.78302736 1177.07777337 1901.44629286 1108.47842269 2040.48892369 994.807291261 c 1
 1996.5 941 l 1
EndSplineSet
EndChar

StartChar: _ra.6
Encoding: 48 57353 48
Width: 2146
VWidth: 0
InSpiro: 1
Flags: W
HStem: 76.4558 138.949<516.583 1035.01> 118.456 138.949<569.055 1142.7 1540.63 2003.76> 830.575 136.816<514.401 736.636>
VStem: 187.008 138.984<379.667 714.105> 1149.05 131.257<433.502 535.284 611.557 670.968> 1429.15 138.979<466.509 652.248>
AnchorPoint: "Anchor-0" 1080 1420 basechar 0
AnchorPoint: "Anchor-1" 1131 0 basechar 0
LayerCount: 2
Back
SplineSet
1996.5 941 m 0
 1868.81123045 1045.64540255 1708.84605993 1109.33300508 1544.5 1125 c 0
 1343.28114464 1144.18205271 1142.50522657 1089.95645565 952.5 1021 c 0
 827.463529792 975.621922944 703.699339158 921.958397628 572.013413145 903.193919237 c 0
 506.170450124 893.811680073 437.493968507 894.30977055 374.923865482 916.855377627 c 0
 343.638813969 928.128181165 314.152353424 945.051609202 290.184526249 968.103155968 c 0
 266.216699075 991.154702734 247.890197862 1020.577546 240.5 1053 c 0
 232.493949793 1088.12433615 238.253199123 1126.90611855 259.251824064 1156.1785216 c 0
 269.751136534 1170.81472312 283.84855616 1182.8936837 300.056760455 1190.75167778 c 0
 316.26496475 1198.60967186 334.526801399 1202.19083563 352.5 1201 c 0
 370.523790344 1199.80581236 388.170348804 1193.83228654 403.382516771 1184.09200686 c 0
 418.594684738 1174.35172718 431.347157682 1160.9188096 440.779998642 1145.51411506 c 0
 459.645680562 1114.70472598 464.814649274 1076.86803886 460.5 1041 c 0
 455.094359684 996.06246172 436.054710095 953.849529107 413.750045737 914.465455654 c 0
 391.44538138 875.081382201 365.659678927 837.785974892 342.091674239 799.144644054 c 0
 294.955664862 721.861982378 257.857527062 635.512818407 256.5 545 c 0
 255.63561675 487.367436808 268.803758218 429.536203111 294.924158902 378.155426875 c 0
 321.044559587 326.77465064 359.783537532 282.12460499 405.787256112 247.398283916 c 0
 497.794693272 177.945641768 615.402647279 149.056568445 730.638336182 145.930229187 c 0
 840.49058662 142.949942382 950.589309507 161.571953521 1054.63830475 196.93020043 c 0
 1152.60374212 230.221114148 1247.80921693 273.608229584 1333.11246216 332.164768149 c 0
 1375.76408478 361.443037432 1415.54115391 395.746428854 1446.11453678 437.479464015 c 0
 1476.68791965 479.212499177 1497.74039046 529.204259921 1498.63829152 580.930188986 c 0
 1499.38809234 624.124418082 1485.16177862 668.173001323 1455.96010178 700.009547908 c 0
 1426.75842495 731.846094493 1382.66404966 749.814463269 1339.63829152 745.930166098 c 0
 1304.27382848 742.737518492 1270.68147809 725.278411986 1246.57490842 699.207133854 c 0
 1222.46833875 673.135855723 1207.73428815 639.070856609 1202.63819997 603.930166098 c 0
 1197.23612127 566.67948114 1202.28903586 528.278798179 1214.67672125 492.735286327 c 0
 1227.06440664 457.191774475 1246.67455449 424.363808205 1270.63125095 395.331538589 c 0
 1318.54464385 337.266999357 1383.05877762 294.438849148 1452.00479756 264.212531635 c 0
 1589.89683744 203.759896575 1744.1319288 194.997930884 1894.63837127 190.930189165 c 2
 2005.63836796 187.930189254 l 1025
  Spiro
    1996.5 941 {
    1544.5 1125 o
    952.5 1021 o
    240.5 1053 o
    352.5 1201 o
    460.5 1041 o
    256.5 545 o
    730.638 145.93 o
    1054.64 196.93 ]
    1498.64 580.93 o
    1339.64 745.93 o
    1202.64 603.93 o
    1894.64 190.93 [
    2005.64 187.93 o
    0 0 z
  EndSpiro
EndSplineSet
Fore
SplineSet
1453.26657074 340.3996659 m 1xbc
 1462.00226861 336.002617415 1471.01782423 331.762695361 1479.91007795 327.864282014 c 0
 1602.57095997 274.089071036 1746.9690478 264.44663085 1896.51606398 260.404819571 c 2
 2007.51606068 257.40481966 l 1
 2005.63836796 187.930189254 l 1
 2003.76067525 118.455558848 l 1x7c
 1892.76067856 121.455558758 l 2
 1741.2948098 125.549230919 1577.22271491 133.430722115 1424.09951717 200.560781256 c 0
 1393.25160009 214.084679184 1362.37363308 230.346814373 1333.07715094 249.215249719 c 1
 1251.93919101 199.050564913 1164.93782409 161.009209995 1077.00010694 131.125946746 c 0
 965.879666919 93.3646599056 847.720512911 73.2282222981 728.753497712 76.4557922771 c 0
 603.770096149 79.8465865581 471.415564586 110.780125056 363.914957251 191.927926173 c 0
 310.074094224 232.570186279 264.302797642 285.026522006 232.970253286 346.659973571 c 0
 201.591130721 408.385047948 185.974930331 477.174862415 187.007815529 546.042255922 c 0
 188.643003594 655.068060676 232.363822021 752.710672576 282.75708411 835.333819427 c 0
 290.334735433 847.757889077 298.10800842 860.009356816 305.681089027 871.852270884 c 1
 283.110103216 884.097840846 261.361499315 899.396895786 242.007433917 918.011063036 c 0
 209.677159037 949.105364489 183.648479856 989.68784852 172.737971895 1037.55469174 c 0
 160.836569271 1089.76881177 168.322361952 1148.65556721 202.779371749 1196.68916377 c 0
 219.86073577 1220.50084543 242.624117911 1240.14460889 269.737405036 1253.2895598 c 0
 296.881060333 1266.44923368 326.896404121 1272.34877803 357.094730955 1270.34795201 c 0
 387.367253203 1268.34221008 416.013886067 1258.53023627 440.859009502 1242.62202046 c 0
 465.658082223 1226.74329071 485.478782933 1205.6051102 500.050773399 1181.80771311 c 0
 529.285738951 1134.06433271 535.224876259 1080.26968736 529.502551347 1032.69952366 c 0
 526.754637795 1009.85588937 521.292273515 987.875515834 514.401265598 967.391181558 c 1
 530.129148578 968.12187266 546.193122096 969.716716807 562.209103546 971.998900984 c 0
 681.652140204 989.018838864 800.883328575 1039.91086248 928.790269903 1086.33068727 c 0
 1122.15112968 1156.50496506 1333.10168975 1214.96753553 1551.09548534 1194.1863395 c 0
 1728.78598003 1177.24722895 1901.57898769 1108.64889623 2040.5535803 994.754367849 c 1
 1996.5 941 l 1
 1952.4464197 887.245632151 l 1
 1836.04347321 982.641908868 1688.90613983 1041.41878121 1537.90451466 1055.8136605 c 0
 1353.46059953 1073.3965699 1162.85932346 1023.40794624 976.209730097 955.669312733 c 0
 854.04373101 911.332983413 725.746538112 854.897956393 581.817722744 834.388937489 c 0
 537.83510602 828.121670492 491.416682717 825.57942301 444.250315757 830.574861172 c 1
 429.345165572 807.010012358 414.573392104 784.511069977 401.426264368 762.955468681 c 0
 357.547507703 691.01329218 327.07205053 615.957576138 325.992184471 543.957744078 c 0
 325.296303169 497.5600112 336.016385715 450.687358275 356.878064519 409.65088018 c 0
 377.786321532 368.522779273 409.492980839 331.679023701 447.659554972 302.868641659 c 0
 524.173821957 245.11115848 627.035198408 218.266550332 732.523174651 215.404666097 c 0
 833.260660329 212.671662466 935.298952094 229.779247136 1032.27650256 262.734454114 c 0
 1098.2376179 285.149561505 1162.37982749 312.256941123 1221.97132762 345.206375013 c 1
 1220.31069495 347.155898786 1218.51824691 349.288229714 1217.02540741 351.097348885 c 0
 1188.58078016 385.568382444 1164.56678759 425.335985256 1149.04837182 469.862382021 c 0
 1133.51868978 514.421104682 1126.59381523 563.815781889 1133.85768725 613.904687182 c 0
 1140.73334199 661.316593384 1160.51223264 708.501769954 1195.54586343 746.390675135 c 0
 1230.77053551 784.48619165 1279.43398438 810.277661218 1333.38935514 815.148666473 c 0
 1399.4706188 821.114378096 1463.6498108 794.443762024 1507.17774691 746.988296595 c 0
 1550.40464741 699.861029231 1569.14683452 638.42676168 1568.12782272 579.723932764 c 0
 1566.91363051 509.77722851 1539.14233742 446.861442335 1502.17943694 396.406638815 c 0
 1487.30511752 376.103014001 1470.68983317 357.422122141 1453.26657074 340.3996659 c 1xbc
  Spiro
    1453.27 340.4 v
    1462.07 336.066 o
    1471 331.866 o
    1479.91 327.864 o
    1609.07 287.402 o
    1749.44 267.729 o
    1896.52 260.405 [
    2007.52 257.405 v
    2005.64 187.93 v
    2003.76 118.456 v
    1892.76 121.456 ]
    1738.12 128.853 o
    1579.84 151.16 o
    1424.1 200.561 o
    1393.33 214.977 o
    1362.81 231.238 o
    1333.08 249.215 v
    1250.25 202.987 o
    1164.36 163.84 o
    1077 131.126 o
    963.879 99.4776 o
    847.103 80.792 o
    728.753 76.4558 o
    602.633 89.8429 o
    478.386 126.729 o
    363.915 191.928 o
    313.048 236.362 o
    268.84 288.238 o
    232.97 346.66 o
    206.899 410.416 o
    191.482 477.528 o
    187.008 546.042 o
    201.334 651.038 o
    235.942 747.931 o
    282.757 835.334 o
    290.378 847.679 o
    298.064 859.894 o
    305.681 871.852 v
    283.464 885.111 o
    262.081 900.509 o
    242.007 918.011 o
    212.131 952.149 o
    188.341 992.24 o
    172.738 1037.55 o
    167.578 1091.29 o
    177.049 1145.74 o
    202.779 1196.69 o
    221.685 1219 o
    244.147 1238.08 o
    269.737 1253.29 o
    297.71 1264 o
    327.087 1269.74 o
    357.095 1270.35 o
    386.716 1265.81 o
    414.854 1256.42 o
    440.859 1242.62 o
    463.967 1225.11 o
    483.757 1204.6 o
    500.051 1181.81 o
    521.936 1132.55 o
    530.91 1081.84 o
    529.503 1032.7 o
    525.902 1010.19 o
    520.763 988.329 o
    514.401 967.391 v
    530.211 968.402 o
    546.207 969.954 o
    562.209 971.999 o
    681.79 998.854 o
    803.569 1039.89 o
    928.79 1086.33 o
    1127.42 1150.05 o
    1336.05 1191.08 o
    1551.1 1194.19 o
    1725.91 1160.31 o
    1891.54 1093.23 o
    2040.55 994.754 v
    1996.5 941 v
    1952.45 887.246 v
    1826.93 970.078 o
    1686.48 1026.96 o
    1537.9 1055.81 o
    1351.97 1052.74 o
    1163.61 1015.6 o
    976.21 955.669 o
    851.775 909.126 o
    720.753 865.055 o
    581.818 834.389 o
    537.131 829.508 o
    491.058 827.951 o
    444.25 830.575 v
    429.46 807.384 o
    415.046 784.808 o
    401.426 762.955 o
    362.641 690.277 o
    336.259 616.674 o
    325.992 543.958 o
    329.048 497.681 o
    339.458 452.355 o
    356.878 409.651 o
    381.197 370.128 o
    411.84 334.184 o
    447.66 302.869 o
    531.986 255.197 o
    628.89 226.498 o
    732.523 215.405 o
    833.358 219.127 o
    933.947 235.232 o
    1032.28 262.734 o
    1097.47 286.731 o
    1161.03 314.191 o
    1221.97 345.206 v
    1220.28 347.196 o
    1218.6 349.201 o
    1217.03 351.097 o
    1190.23 387.276 o
    1167.23 426.983 o
    1149.05 469.862 o
    1136.6 515.832 o
    1131.12 564.25 o
    1133.86 613.905 o
    1145.11 660.859 o
    1165.54 705.782 o
    1195.55 746.391 o
    1234.91 780.037 o
    1281.55 803.641 o
    1333.39 815.149 o
    1398.08 810.689 o
    1457.52 787.044 o
    1507.18 746.988 o
    1542.39 695.778 o
    1562.4 638.648 o
    1568.13 579.724 o
    1558.72 512.387 o
    1535.41 450.756 o
    1502.18 396.407 o
    1486.78 376.664 o
    1470.37 357.955 o
    0 0 z
  EndSpiro
375.207296291 992.322359412 m 1
 383.736830255 1012.32204908 389.333246492 1031.30928349 391.497448653 1049.30047634 c 0
 394.404422289 1073.46639036 390.005622173 1095.34511925 381.509223885 1109.220517 c 0
 377.215532431 1116.232509 371.531287252 1121.96016364 365.90602404 1125.56199325 c 0
 360.326811541 1129.1343368 353.680327485 1131.26941464 347.905269045 1131.65204799 c 0
 342.157198677 1132.03289323 335.648869166 1130.77011005 330.376115874 1128.21379577 c 0
 325.072994408 1125.64275851 319.641537298 1121.12860082 315.724276379 1115.66787942 c 0
 308.184036294 1105.15666988 304.151330316 1086.47986053 308.262028105 1068.44530826 c 0
 312.131915869 1051.46724348 322.756239113 1033.20404098 338.361618582 1018.1952489 c 0
 348.55176786 1008.39466494 361.131111114 999.599210077 375.207296291 992.322359412 c 1
  Spiro
    375.207 992.322 v
    382.734 1011.97 o
    388.212 1031 o
    391.497 1049.3 o
    392.09 1072.47 o
    388.516 1092.91 o
    381.509 1109.22 o
    376.811 1115.77 o
    371.492 1121.29 o
    365.906 1125.56 o
    360.049 1128.64 o
    353.893 1130.7 o
    347.905 1131.65 o
    341.984 1131.5 o
    335.981 1130.32 o
    330.376 1128.21 o
    325.096 1125.04 o
    320.081 1120.77 o
    315.724 1115.67 o
    309.53 1102.78 o
    306.693 1086.35 o
    308.262 1068.45 o
    314.31 1051.22 o
    324.494 1034.1 o
    338.362 1018.2 o
    349.303 1008.76 o
    361.676 1000.08 o
    0 0 z
  EndSpiro
1338.37409797 423.572141443 m 1
 1358.21879988 440.743997487 1375.86935544 459.196034941 1390.04963662 478.552289215 c 0
 1414.23350187 511.563556018 1428.56715041 548.631291332 1429.14876032 582.136445207 c 0
 1429.62935016 609.822074483 1419.91890983 636.484973415 1404.74245666 653.03079922 c 0
 1389.8670391 669.248426962 1365.85748053 678.514548441 1345.8872279 676.711665723 c 0
 1329.11367259 675.197375766 1310.59242066 666.070632321 1297.60395341 652.023592574 c 0
 1284.42444487 637.769941492 1274.73523432 616.825119834 1271.41871268 593.955645013 c 0
 1267.87842731 569.543180392 1271.05938194 542.136491676 1280.30507068 515.608190633 c 0
 1289.56202569 489.047563695 1304.76832882 463.159233966 1324.23709448 439.565728293 c 0
 1328.69570754 434.162493479 1333.46802688 428.771631889 1338.37409797 423.572141443 c 1
  Spiro
    1338.37 423.572 v
    1357.42 441.139 o
    1374.78 459.53 o
    1390.05 478.552 o
    1410.79 512.599 o
    1424.14 547.761 o
    1429.15 582.136 o
    1426.41 609.118 o
    1417.91 633.472 o
    1404.74 653.031 o
    1387.33 666.768 o
    1366.69 674.982 o
    1345.89 676.712 o
    1328.82 672.766 o
    1312.15 664.32 o
    1297.6 652.024 o
    1285.71 635.734 o
    1276.75 615.986 o
    1271.42 593.956 o
    1270.09 568.715 o
    1273.11 542.259 o
    1280.31 515.608 o
    1291.47 489.358 o
    1306.27 463.839 o
    1324.24 439.566 o
    1328.79 434.179 o
    1333.52 428.823 o
    0 0 z
  EndSpiro
EndSplineSet
EndChar
